<svg width="200" height="47" viewBox="0 0 200 47" fill="none" xmlns="http://www.w3.org/2000/svg">
<path d="M18.0732 44.6615C8.10761 44.6615 0 37.8917 0 29.5702C0 21.2488 5.72598 15.1936 10.7774 9.88262C12.8995 7.65191 14.9644 5.48066 16.5422 3.23623C17.2282 2.2598 18.917 2.2598 19.6042 3.23623C21.182 5.48066 23.2469 7.65191 25.369 9.88262C30.4215 15.1947 36.1464 21.2145 36.1464 29.5702C36.1464 37.926 28.0388 44.6615 18.0732 44.6615Z" fill="#88C8F0"/>
<path d="M15.5557 14.5896C16.6293 14.9589 17.8389 14.5439 18.4655 13.5972C18.4712 13.5892 18.4758 13.5812 18.4815 13.5732C18.6701 13.2827 19.0875 13.2759 19.2738 13.5674C19.5825 14.0499 20.0593 14.4341 20.6653 14.6182C21.8121 14.9669 23.0732 14.4318 23.622 13.3662C24.3275 11.9965 23.6575 10.3317 22.2031 9.83096C21.1295 9.46165 19.921 9.87783 19.2933 10.8234C19.2876 10.8314 19.283 10.8394 19.2773 10.8474C19.0886 11.1378 18.6713 11.1447 18.4849 10.8531C18.1762 10.3706 17.6994 9.98645 17.0935 9.80237C15.9467 9.45365 14.6856 9.98874 14.1367 11.0543C13.4313 12.4241 14.1013 14.0888 15.5557 14.5896Z" fill="white"/>
<path d="M21.9818 14.6922C22.7541 14.6922 23.3801 14.0661 23.3801 13.2938C23.3801 12.5216 22.7541 11.8955 21.9818 11.8955C21.2095 11.8955 20.5835 12.5216 20.5835 13.2938C20.5835 14.0661 21.2095 14.6922 21.9818 14.6922Z" fill="#231815"/>
<path d="M16.9598 14.6922C17.7321 14.6922 18.3582 14.0661 18.3582 13.2938C18.3582 12.5216 17.7321 11.8955 16.9598 11.8955C16.1876 11.8955 15.5615 12.5216 15.5615 13.2938C15.5615 14.0661 16.1876 14.6922 16.9598 14.6922Z" fill="#231815"/>
<path d="M82.4747 36.465C80.1262 36.465 77.8269 35.8235 75.826 34.6116C73.9566 33.4785 71.8128 32.8805 69.6267 32.8805C67.4406 32.8805 65.2968 33.4796 63.4274 34.6116C61.4265 35.8247 59.1272 36.465 56.7787 36.465C53.3257 36.465 50.0797 35.1101 47.6398 32.6507C45.1998 30.1913 43.8701 26.935 43.8964 23.4809C43.9227 20.1057 45.2901 16.9054 47.7495 14.4712C50.2066 12.0381 53.416 10.6992 56.7878 10.6992C56.8644 10.6992 56.941 10.6992 57.0176 10.7015C59.2655 10.7427 61.4688 11.3749 63.3896 12.5297C65.2762 13.664 67.4326 14.2631 69.6267 14.2631C71.8208 14.2631 73.9783 13.664 75.8649 12.5297C77.7857 11.3749 79.9902 10.7427 82.2369 10.7015C82.3135 10.7004 82.3901 10.6992 82.4667 10.6992C85.8385 10.6992 89.0479 12.0392 91.505 14.4723C93.9644 16.9066 95.333 20.1068 95.3581 23.4821C95.3844 26.9362 94.0547 30.1925 91.6148 32.6518C89.1737 35.1112 85.9277 36.4661 82.4758 36.4661L82.4747 36.465Z" fill="#FAB4BF"/>
<path d="M79.6489 17.611C80.7225 17.9803 81.9322 17.5653 82.5587 16.6186C82.5644 16.6106 82.569 16.6026 82.5747 16.5946C82.7634 16.3042 83.1807 16.2973 83.367 16.5889C83.6757 17.0714 84.1525 17.4555 84.7585 17.6396C85.9053 17.9883 87.1664 17.4533 87.7152 16.3877C88.4206 15.0179 87.7506 13.3532 86.2963 12.8524C85.2227 12.4831 84.0142 12.8993 83.3865 13.8449C83.3808 13.8529 83.3762 13.8609 83.3705 13.8689C83.1818 14.1593 82.7645 14.1661 82.5781 13.8746C82.2694 13.3921 81.7927 13.0079 81.1867 12.8239C80.0399 12.4751 78.7788 13.0102 78.23 14.0758C77.5246 15.4455 78.1946 17.1103 79.6489 17.611Z" fill="white"/>
<path d="M85.3861 17.7795C86.1584 17.7795 86.7844 17.1535 86.7844 16.3812C86.7844 15.609 86.1584 14.9829 85.3861 14.9829C84.6138 14.9829 83.9878 15.609 83.9878 16.3812C83.9878 17.1535 84.6138 17.7795 85.3861 17.7795Z" fill="#231815"/>
<path d="M80.37 17.7795C81.1423 17.7795 81.7683 17.1535 81.7683 16.3812C81.7683 15.609 81.1423 14.9829 80.37 14.9829C79.5977 14.9829 78.9717 15.609 78.9717 16.3812C78.9717 17.1535 79.5977 17.7795 80.37 17.7795Z" fill="#231815"/>
<path d="M146.802 23.5827C146.802 25.6396 141.046 26.7601 140.443 28.6158C139.819 30.539 143.793 34.8255 142.628 36.4262C141.452 38.0429 136.14 35.5801 134.523 36.7566C132.922 37.9217 133.63 43.7403 131.707 44.3646C129.851 44.9671 127.011 39.8631 124.954 39.8631C122.897 39.8631 120.058 44.9671 118.203 44.3646C116.279 43.7403 116.987 37.9217 115.387 36.7566C113.77 35.5801 108.458 38.0429 107.281 36.4262C106.116 34.8255 110.092 30.539 109.466 28.6158C108.864 26.7601 103.108 25.6385 103.108 23.5827C103.108 21.527 108.864 20.4053 109.466 18.5496C110.09 16.6265 106.116 12.34 107.281 10.7393C108.458 9.12258 113.77 11.5854 115.387 10.4089C116.987 9.24377 116.279 3.42518 118.203 2.80091C120.058 2.19835 122.898 7.30234 124.955 7.30234C127.012 7.30234 129.851 2.19835 131.707 2.80091C133.63 3.42518 132.922 9.24377 134.523 10.4089C136.14 11.5854 141.452 9.12258 142.628 10.7393C143.793 12.34 139.818 16.6265 140.443 18.5496C141.046 20.4053 146.802 21.527 146.802 23.5827Z" fill="#E67162"/>
<path d="M128.279 14.5616C127.206 14.9309 125.996 14.5159 125.37 13.5692C125.364 13.5612 125.359 13.5532 125.354 13.5452C125.165 13.2547 124.748 13.2479 124.561 13.5394C124.252 14.0219 123.776 14.4061 123.17 14.5902C122.023 14.9389 120.762 14.4038 120.213 13.3382C119.507 11.9684 120.177 10.3037 121.632 9.80288C122.705 9.43357 123.914 9.84975 124.542 10.7953C124.547 10.8033 124.552 10.8113 124.558 10.8193C124.746 11.1098 125.164 11.1166 125.35 10.8251C125.659 10.3426 126.136 9.95838 126.742 9.77429C127.888 9.42556 129.15 9.96066 129.698 11.0263C130.404 12.3961 129.734 14.0608 128.279 14.5616Z" fill="white"/>
<path d="M122.537 11.9323C123.309 11.9323 123.935 12.5584 123.935 13.3307C123.935 14.1029 123.309 14.729 122.537 14.729C121.765 14.729 121.139 14.1029 121.139 13.3307C121.139 12.5584 121.765 11.9323 122.537 11.9323Z" fill="#231815"/>
<path d="M127.559 11.9323C128.331 11.9323 128.957 12.5584 128.957 13.3307C128.957 14.1029 128.331 14.729 127.559 14.729C126.787 14.729 126.161 14.1029 126.161 13.3307C126.161 12.5584 126.787 11.9323 127.559 11.9323Z" fill="#231815"/>
<path d="M175.556 45.0181C175.566 45.8196 176.283 46.4233 177.072 46.2884C179.298 45.9076 183.309 44.8901 185.904 42.2958C191.878 36.3217 189.595 32.5623 192.603 28.3684C194.439 25.8084 197.077 25.3248 198.711 25.303C199.512 25.2928 200.116 24.5759 199.981 23.7869C199.601 21.5608 198.583 17.5499 195.989 14.9544C190.015 8.98035 186.255 11.2637 182.061 8.25546C179.501 6.41921 179.018 3.78147 178.996 2.1476C178.986 1.3461 178.269 0.742399 177.48 0.877316C175.254 1.25806 171.243 2.27565 168.647 4.86995C162.673 10.844 164.957 14.6034 161.948 18.7973C160.112 21.3573 157.474 21.8409 155.84 21.8627C155.039 21.873 154.435 22.5898 154.57 23.3788C154.951 25.6049 155.969 29.6158 158.563 32.2113C164.537 38.1854 168.296 35.9021 172.49 38.9102C175.05 40.7465 175.534 43.3842 175.556 45.0181Z" fill="#54B37B"/>
<path d="M176.821 11.8868C175.748 12.2561 174.538 11.8411 173.911 10.8944C173.906 10.8864 173.901 10.8784 173.895 10.8704C173.707 10.58 173.289 10.5731 173.103 10.8646C172.794 11.3471 172.318 11.7313 171.712 11.9154C170.565 12.2641 169.304 11.729 168.755 10.6634C168.049 9.29367 168.719 7.62893 170.174 7.12813C171.247 6.75883 172.456 7.17501 173.084 8.12058C173.089 8.12858 173.094 8.13658 173.1 8.14459C173.288 8.435 173.706 8.44186 173.892 8.1503C174.201 7.6678 174.678 7.28363 175.284 7.09955C176.43 6.75082 177.691 7.28592 178.24 8.35153C178.946 9.72128 178.276 11.386 176.821 11.8868Z" fill="white"/>
<path d="M170.396 9.1921C171.168 9.1921 171.794 9.81816 171.794 10.5904C171.794 11.3627 171.168 11.9888 170.396 11.9888C169.624 11.9888 168.998 11.3627 168.998 10.5904C168.998 9.81816 169.624 9.1921 170.396 9.1921Z" fill="#231815"/>
<path d="M175.418 9.1921C176.191 9.1921 176.817 9.81816 176.817 10.5904C176.817 11.3627 176.191 11.9888 175.418 11.9888C174.646 11.9888 174.02 11.3627 174.02 10.5904C174.02 9.81816 174.646 9.1921 175.418 9.1921Z" fill="#231815"/>
</svg>
