<svg width="160" height="145" viewBox="0 0 160 145" fill="none" xmlns="http://www.w3.org/2000/svg">
<path d="M43.0042 5.10149C54.0721 1.59422 64.8211 0 80 0C95.1789 0 105.928 1.59422 116.996 5.10149C144.821 14.0291 160 39.5338 160 72.053C160 104.572 144.821 130.08 116.996 139.004C105.928 142.512 95.1762 144.106 80 144.106C64.8238 144.106 54.0721 142.512 43.0042 139.004C15.1762 130.08 0 104.572 0 72.053C0 39.5338 15.1762 14.0291 43.0042 5.10149Z" fill="white"/>
<path d="M73.1276 92.5702C71.464 92.5702 70.0432 91.9812 68.8653 90.8033C67.688 89.626 67.0993 88.2055 67.0993 86.5419V80.0042C64.0153 77.8962 61.5994 75.2121 59.8516 71.9521C58.1039 68.6915 57.23 65.1889 57.23 61.4444C57.23 55.2681 59.3886 50.0192 63.7059 45.6978C68.0226 41.377 73.2797 39.2166 79.4772 39.2166C85.6747 39.2166 90.9309 41.3764 95.2459 45.696C99.5614 50.0157 101.719 55.2707 101.719 61.4611C101.719 65.2127 100.842 68.7097 99.0887 71.9521C97.3351 75.1939 94.9133 77.8779 91.8234 80.0042V86.5419C91.8234 88.2055 91.2344 89.626 90.0565 90.8033C88.8785 91.9812 87.4581 92.5702 85.7951 92.5702H73.1276ZM73.1717 87.6289H85.751C86.0677 87.6289 86.3278 87.5271 86.5315 87.3234C86.7358 87.1191 86.8379 86.8586 86.8379 86.5419V77.4267L89.3209 75.6536C91.6503 74.0142 93.4755 71.9494 94.7964 69.4594C96.1174 66.9693 96.7779 64.3085 96.7779 61.477C96.7779 56.6853 95.0905 52.6008 91.7156 49.2236C88.3408 45.8464 84.2593 44.1578 79.471 44.1578C74.6828 44.1578 70.6025 45.8461 67.23 49.2227C63.8575 52.5993 62.1713 56.6832 62.1713 61.4744C62.1713 64.3024 62.8273 66.9628 64.1395 69.4558C65.4516 71.9483 67.2721 74.0142 69.6008 75.6536L72.0847 77.4267V86.5419C72.0847 86.8586 72.1866 87.1191 72.3902 87.3234C72.5939 87.5271 72.8544 87.6289 73.1717 87.6289ZM72.9033 104.898C72.2169 104.898 71.632 104.655 71.1487 104.169C70.6654 103.683 70.4238 103.102 70.4238 102.427V99.9565H88.5253V102.427C88.5253 103.102 88.2831 103.683 87.7986 104.169C87.3147 104.655 86.7364 104.898 86.0635 104.898H72.9033Z" fill="black"/>
</svg>
