<svg width="160" height="145" viewBox="0 0 160 145" fill="none" xmlns="http://www.w3.org/2000/svg">
<path d="M43.0042 5.10149C54.0721 1.59422 64.8211 0 80 0C95.1789 0 105.928 1.59422 116.996 5.10149C144.821 14.0291 160 39.5338 160 72.053C160 104.572 144.821 130.08 116.996 139.004C105.928 142.512 95.1762 144.106 80 144.106C64.8238 144.106 54.0721 142.512 43.0042 139.004C15.1762 130.08 0 104.572 0 72.053C0 39.5338 15.1762 14.0291 43.0042 5.10149Z" fill="white"/>
<path d="M91.682 98.2099L78.2507 84.7777L81.7588 81.2695L91.682 91.1936L111.421 71.4549L114.929 74.9631L91.682 98.2099ZM108.843 65.0532H103.902V48.6938C103.902 48.4218 103.789 48.1728 103.562 47.9468C103.336 47.7201 103.087 47.6068 102.815 47.6068H95.4286V56.3008H63.4975V47.6068H56.1111C55.8392 47.6068 55.5902 47.7201 55.3641 47.9468C55.1375 48.1728 55.0242 48.4218 55.0242 48.6938V95.3975C55.0242 95.6695 55.1375 95.9185 55.3641 96.1446C55.5902 96.3712 55.8392 96.4845 56.1111 96.4845H75.931V101.426H56.1111C54.4476 101.426 53.0271 100.837 51.8498 99.6589C50.6718 98.4816 50.0829 97.0611 50.0829 95.3975V48.6938C50.0829 47.0302 50.6718 45.6098 51.8498 44.4324C53.0271 43.2545 54.4476 42.6655 56.1111 42.6655H71.8153C72.2568 40.9449 73.1922 39.5303 74.6215 38.4218C76.0514 37.3139 77.6652 36.76 79.463 36.76C81.2967 36.76 82.9212 37.3139 84.3363 38.4218C85.7515 39.5303 86.6854 40.9449 87.1381 42.6655H102.815C104.478 42.6655 105.899 43.2545 107.076 44.4324C108.254 45.6098 108.843 47.0302 108.843 48.6938V65.0532ZM79.463 47.7295C80.3078 47.7295 81.0227 47.4367 81.6078 46.851C82.193 46.2658 82.4855 45.5538 82.4855 44.715C82.4855 43.8761 82.193 43.1641 81.6078 42.579C81.0227 41.9939 80.3078 41.7013 79.463 41.7013C78.6183 41.7013 77.9063 41.995 77.327 42.5825C76.7472 43.1706 76.4573 43.8814 76.4573 44.715C76.4573 45.5491 76.7472 46.2599 77.327 46.8474C77.9063 47.4355 78.6183 47.7295 79.463 47.7295Z" fill="black"/>
</svg>
