<svg width="160" height="145" viewBox="0 0 160 145" fill="none" xmlns="http://www.w3.org/2000/svg">
<path d="M43.0042 5.10149C54.0721 1.59422 64.8211 0 80 0C95.1789 0 105.928 1.59422 116.996 5.10149C144.821 14.0291 160 39.5338 160 72.053C160 104.572 144.821 130.08 116.996 139.004C105.928 142.512 95.1762 144.106 80 144.106C64.8238 144.106 54.0721 142.512 43.0042 139.004C15.1762 130.08 0 104.572 0 72.053C0 39.5338 15.1762 14.0291 43.0042 5.10149Z" fill="white"/>
<path d="M49.2877 102.769V97.2202L54.229 92.2789V102.769H49.2877ZM63.4158 102.769V83.0922L68.357 78.1509V102.769H63.4158ZM77.5438 102.769V78.1509L82.4851 83.1805V102.769H77.5438ZM91.6718 102.769V83.1805L96.6131 78.2392V102.769H91.6718ZM105.8 102.769V68.9641L110.741 64.0229V102.769H105.8ZM49.2877 82.9933V76.0282L72.9416 52.3566L87.0696 66.4847L110.741 42.8308V49.7959L87.0696 73.4507L72.9416 59.3226L49.2877 82.9933Z" fill="black"/>
</svg>
