<svg width="160" height="145" viewBox="0 0 160 145" fill="none" xmlns="http://www.w3.org/2000/svg">
<path d="M43.0042 5.10149C54.0721 1.59422 64.8211 0 80 0C95.1789 0 105.928 1.59422 116.996 5.10149C144.821 14.0291 160 39.5338 160 72.053C160 104.572 144.821 130.08 116.996 139.004C105.928 142.512 95.1762 144.106 80 144.106C64.8238 144.106 54.0721 142.512 43.0042 139.004C15.1762 130.08 0 104.572 0 72.053C0 39.5338 15.1762 14.0291 43.0042 5.10149Z" fill="white"/>
<path d="M111.559 101.398L99.4894 89.3287H65.3411C63.7099 89.3287 62.32 88.7544 61.1715 87.606C60.023 86.4569 59.4488 85.067 59.4488 83.4364V80.9773H97.1804C98.838 80.9773 100.257 80.3871 101.437 79.2068C102.618 78.0266 103.209 76.6073 103.209 74.949V51.0673H105.667C107.298 51.0673 108.688 51.6416 109.836 52.7901C110.985 53.9391 111.559 55.329 111.559 56.9596V101.398ZM52.3203 74.3998L57.3905 69.3287H90.4731C90.7898 69.3287 91.05 69.2269 91.2536 69.0232C91.4573 68.8195 91.5592 68.559 91.5592 68.2417V45.1618C91.5592 44.8445 91.4573 44.584 91.2536 44.3803C91.05 44.1767 90.7898 44.0748 90.4731 44.0748H53.4073C53.09 44.0748 52.8295 44.1767 52.6258 44.3803C52.4221 44.584 52.3203 44.8445 52.3203 45.1618V74.3998ZM47.379 86.3397V45.1618C47.379 43.5041 47.9692 42.0848 49.1494 40.904C50.3303 39.7237 51.7496 39.1335 53.4073 39.1335H90.4731C92.1308 39.1335 93.5497 39.7237 94.73 40.904C95.9103 42.0848 96.5004 43.5041 96.5004 45.1618V68.2417C96.5004 69.8994 95.9103 71.3187 94.73 72.4996C93.5497 73.6798 92.1308 74.27 90.4731 74.27H59.4488L47.379 86.3397Z" fill="black"/>
</svg>
