<svg width="160" height="145" viewBox="0 0 160 145" fill="none" xmlns="http://www.w3.org/2000/svg">
<path d="M43.0042 5.10149C54.0721 1.59422 64.8211 0 80 0C95.1789 0 105.928 1.59422 116.996 5.10149C144.821 14.0291 160 39.5338 160 72.053C160 104.572 144.821 130.08 116.996 139.004C105.928 142.512 95.1762 144.106 80 144.106C64.8238 144.106 54.0721 142.512 43.0042 139.004C15.1762 130.08 0 104.572 0 72.053C0 39.5338 15.1762 14.0291 43.0042 5.10149Z" fill="white"/>
<path d="M52.6542 104.897C50.9853 104.897 49.5646 104.311 48.392 103.139C47.2199 101.966 46.6339 100.543 46.6339 98.8687V58.6585C46.6339 56.9843 47.2199 55.5612 48.392 54.3892C49.5646 53.2166 50.988 52.6303 52.6622 52.6303H67.5408V47.0055C67.5408 45.3308 68.1268 43.908 69.2988 42.7371C70.4714 41.5668 71.8925 40.9817 73.562 40.9817H85.3871C87.0566 40.9817 88.4776 41.568 89.6502 42.7406C90.8223 43.9127 91.4083 45.3358 91.4083 47.0099V52.6303H106.287C107.961 52.6303 109.384 53.2166 110.557 54.3892C111.729 55.5612 112.315 56.9843 112.315 58.6585V98.8687C112.315 100.543 111.729 101.966 110.557 103.139C109.384 104.311 107.964 104.897 106.295 104.897H52.6542ZM52.6622 99.9556H106.287C106.559 99.9556 106.808 99.8426 107.035 99.6166C107.261 99.3899 107.374 99.1406 107.374 98.8687V58.6585C107.374 58.3865 107.261 58.1375 107.035 57.9115C106.808 57.6849 106.559 57.5715 106.287 57.5715H52.6622C52.3902 57.5715 52.1409 57.6849 51.9143 57.9115C51.6882 58.1375 51.5752 58.3865 51.5752 58.6585V98.8687C51.5752 99.1406 51.6882 99.3899 51.9143 99.6166C52.1409 99.8426 52.3902 99.9556 52.6622 99.9556ZM72.482 52.6303H86.467V47.0099C86.467 46.738 86.354 46.489 86.128 46.2629C85.9013 46.0363 85.652 45.923 85.3801 45.923H73.569C73.297 45.923 73.0477 46.0363 72.8211 46.2629C72.5951 46.489 72.482 46.738 72.482 47.0099V52.6303ZM77.0127 81.2263V91.8223H81.954V81.2263H92.55V76.285H81.954V65.689H77.0127V76.285H66.4167V81.2263H77.0127Z" fill="black"/>
</svg>
