<svg width="78" height="78" viewBox="0 0 78 78" fill="none" xmlns="http://www.w3.org/2000/svg">
<g clip-path="url(#clip0_2004_605)">
<path d="M35.9267 14.0554C41.0681 12.977 42.1357 17.2782 45.6726 17.9334C47.7111 18.3096 49.2407 16.8926 51.5851 18.5478C54.7599 20.7956 52.84 25.0309 55.3686 26.9651C55.9524 27.4134 56.739 27.5859 57.3759 28.0812C59.7078 29.8838 60.4913 32.3729 59.4206 35.1442C58.584 37.3042 55.9555 38.4296 55.2812 40.6993C54.3759 43.7496 56.9732 47.7906 52.4467 49.7562C47.7236 51.8065 43.9463 47.9411 39.2887 48.4458C36.6041 48.7342 34.5687 51.1042 32.215 51.6779C27.0766 52.9288 23.0028 49.6935 23.9268 44.292C24.3826 41.6147 28.2192 38.2447 24.4607 35.7743C22.8405 34.7085 21.3639 35.1379 19.9748 33.0751C16.8531 28.4386 20.3681 24.2095 24.7947 22.6076C26.5303 21.9806 29.5646 21.8959 30.8758 20.8833C32.3055 19.783 31.6999 18.7516 32.1026 17.4161C32.5053 16.0806 34.6343 14.3282 35.9267 14.0554Z" fill="#B28B46"/>
<g style="mix-blend-mode:multiply" opacity="0.3">
<path d="M23.6738 29.9145C24.3544 28.0335 25.8559 26.4754 27.7227 25.7168C29.9672 24.9017 32.7923 25.2685 34.4843 27.0617C35.0805 27.8454 35.6081 28.7953 35.5862 29.8016C35.3334 29.2248 34.9244 28.7608 34.4968 28.3188C34.0972 27.8987 33.6789 27.5382 33.1388 27.3124C29.4927 25.7763 26.3491 27.2592 23.6738 29.9176V29.9145Z" fill="black"/>
</g>
<g style="mix-blend-mode:multiply" opacity="0.3">
<path d="M46.0376 36.8758C47.2114 34.2644 50.3518 33.6562 52.7742 34.9071C53.5547 35.3178 54.1852 35.9636 54.5661 36.7128C52.9366 35.5936 51.0667 35.1547 49.1437 35.3993C47.9949 35.6062 47.0209 36.1548 46.0376 36.8758Z" fill="black"/>
</g>
<g style="mix-blend-mode:multiply" opacity="0.3">
<path d="M36.0796 21.8151C37.0536 19.4608 40.8058 19.4921 41.9203 21.7023C41.4364 21.3919 40.9682 21.1348 40.4749 20.9844C38.9141 20.511 37.3751 20.7586 36.0796 21.812V21.8151Z" fill="black"/>
</g>
<g style="mix-blend-mode:multiply" opacity="0.3">
<path d="M38.7583 33.1901C39.7323 30.8358 43.4846 30.8671 44.599 33.0773C44.1151 32.7669 43.6469 32.5098 43.1537 32.3594C41.5928 31.886 40.0538 32.1336 38.7583 33.187V33.1901Z" fill="black"/>
</g>
<g style="mix-blend-mode:multiply" opacity="0.3">
<path d="M28.6562 43.6243C29.6614 41.7026 31.806 40.4548 33.9881 40.4329C36.192 40.3483 38.4678 41.9439 38.911 44.1196C35.8986 40.8969 32.1245 41.4925 28.6562 43.6243Z" fill="black"/>
</g>
</g>
<defs>
<clipPath id="clip0_2004_605">
<rect width="41.1969" height="37.9841" fill="white" transform="translate(18.7822 13.8828)"/>
</clipPath>
</defs>
</svg>
