<svg width="77" height="77" viewBox="0 0 77 77" fill="none" xmlns="http://www.w3.org/2000/svg">
<path d="M39.1434 24.2038C42.5759 24.2038 45.3585 21.4684 45.3585 18.0941C45.3585 14.7198 42.5759 11.9844 39.1434 11.9844C35.7108 11.9844 32.9282 14.7198 32.9282 18.0941C32.9282 21.4684 35.7108 24.2038 39.1434 24.2038Z" fill="#6D5239"/>
<path d="M48.7871 50.0521C51.2904 50.0521 53.3197 48.0572 53.3197 45.5964C53.3197 43.1355 51.2904 41.1406 48.7871 41.1406C46.2837 41.1406 44.2544 43.1355 44.2544 45.5964C44.2544 48.0572 46.2837 50.0521 48.7871 50.0521Z" fill="#6D5239"/>
<path d="M23.7479 32.4928C27.1804 32.4928 29.963 29.7574 29.963 26.3831C29.963 23.0088 27.1804 20.2734 23.7479 20.2734C20.3153 20.2734 17.5327 23.0088 17.5327 26.3831C17.5327 29.7574 20.3153 32.4928 23.7479 32.4928Z" fill="#6D5239"/>
<path d="M37.9674 39.6585C40.7793 39.6585 43.0588 37.4176 43.0588 34.6535C43.0588 31.8893 40.7793 29.6484 37.9674 29.6484C35.1555 29.6484 32.876 31.8893 32.876 34.6535C32.876 37.4176 35.1555 39.6585 37.9674 39.6585Z" fill="#6D5239"/>
<path d="M52.1596 33.1032C55.294 33.1032 57.8348 30.6054 57.8348 27.5243C57.8348 24.4431 55.294 21.9453 52.1596 21.9453C49.0253 21.9453 46.4844 24.4431 46.4844 27.5243C46.4844 30.6054 49.0253 33.1032 52.1596 33.1032Z" fill="#6D5239"/>
<path d="M26.1611 48.2985C29.2954 48.2985 31.8363 45.8008 31.8363 42.7196C31.8363 39.6384 29.2954 37.1406 26.1611 37.1406C23.0267 37.1406 20.4858 39.6384 20.4858 42.7196C20.4858 45.8008 23.0267 48.2985 26.1611 48.2985Z" fill="#6D5239"/>
</svg>
