<svg width="77" height="78" viewBox="0 0 77 78" fill="none" xmlns="http://www.w3.org/2000/svg">
<path d="M61.5762 16.5321C59.4241 13.7446 55.7577 13.0477 51.2145 14.9641C50.2726 15.3601 48.4393 16.354 47.3887 17.9259C45.8743 20.1908 45.7946 22.6299 44.0411 22.8041C42.2876 22.9783 39.4182 22.9783 36.7082 24.7205C32.8969 27.1715 32.4042 30.8183 29.5348 30.6441C26.6654 30.4698 24.4337 31.6894 22.2816 33.4316C20.5571 34.8254 19.6514 37.7 19.492 40.052C19.3724 41.7903 19.155 43.8849 18.5355 44.756C17.9776 45.54 15.8255 47.5435 12.9562 45.8013C10.0868 44.0591 12.8765 49.2857 17.8182 50.8537C22.7599 52.4217 25.1003 51.9624 27.6219 51.5506C31.368 50.9408 31.9259 49.3689 34.7953 49.1986C37.6647 49.0284 41.2514 47.892 43.0049 45.8013C44.7584 43.7107 45.5555 41.0973 47.9466 39.8778C51.0116 38.3138 53.4209 38.9473 56.3953 35.6965C58.8662 32.9961 58.8662 31.1667 61.4168 29.0761C63.9673 26.9854 64.5252 20.1037 61.5762 16.5321Z" fill="#B37C45"/>
</svg>
