<svg width="77" height="78" viewBox="0 0 77 78" fill="none" xmlns="http://www.w3.org/2000/svg">
<g clip-path="url(#clip0_2004_623)">
<path fill-rule="evenodd" clip-rule="evenodd" d="M33.8827 18.4095L33.9376 18.3545C34.5179 16.2562 34.4171 13.0004 31.9127 13.0554C29.7747 14.5275 32.945 17.3557 33.7147 18.3514C33.7696 18.3698 33.8277 18.3881 33.8827 18.4064V18.4095ZM53.3229 34.3007C53.9826 30.9715 60.369 29.0077 56.9849 24.4966C56.5696 23.9407 56.032 23.4245 55.3509 23.1435C53.3015 22.2975 49.4043 23.4703 48.1368 21.8485C47.4679 20.9903 47.5626 19.845 47.2908 18.5225C46.8051 16.1646 45.4643 14.5611 42.5567 14.5794C42.1261 14.6924 41.6923 14.8055 41.2617 14.9185C40.1377 15.3583 39.1543 16.3112 38.5556 17.2855C37.1935 19.5029 36.9308 22.3952 34.8356 23.8796C32.0532 25.8496 28.9042 23.9743 25.3674 24.5546C23.0493 24.9364 21.7054 25.8068 20.6914 27.4836C20.2058 28.2838 19.7232 29.5361 19.9584 30.8647C20.8349 35.7881 26.5555 35.0429 27.9025 38.2468C29.4204 41.8538 24.6222 44.453 26.7205 47.9379C27.1725 48.6892 27.7375 49.2817 28.5805 49.6269C33.0672 51.4747 34.2736 45.8304 37.2026 45.2318C39.8079 44.7004 40.0614 50.2499 42.8377 50.8669C45.0184 51.3525 46.3317 49.7887 46.6127 48.1058C46.8296 46.8139 45.9958 44.96 47.0067 44.2728C47.8161 43.723 49.4654 44.1964 50.2748 44.3858C52.2814 44.8531 54.343 44.4896 55.2898 43.2588C57.892 39.8808 52.6418 37.7123 53.3168 34.3007H53.3229ZM31.1216 20.9445C31.5095 19.9702 28.8554 16.7266 28.1346 16.2104C27.6948 15.8958 27.1236 15.7095 26.3875 15.7034C21.6474 17.8566 28.0888 21.0269 31.1216 20.9445Z" fill="#D3C167"/>
</g>
<defs>
<clipPath id="clip0_2004_623">
<rect width="38.065" height="37.9001" fill="white" transform="translate(19.9033 13.0547)"/>
</clipPath>
</defs>
</svg>
