<svg width="77" height="77" viewBox="0 0 77 77" fill="none" xmlns="http://www.w3.org/2000/svg">
<path d="M45.213 15.3863C45.213 15.3863 50.0756 10.0966 56.6076 15.0909C62.0041 19.2166 58.4053 26.2897 58.4053 26.2897C58.4053 26.2897 58.092 30.4047 56.006 33.0674C54.0055 35.6197 51.5066 35.7194 51.5066 35.7194C51.5066 35.7194 51.6062 39.3538 47.7084 42.2016C45.4907 43.8213 41.3116 44.2662 41.3116 44.2662C41.3116 44.2662 41.0126 48.3919 37.4137 49.8656C33.8148 51.3394 29.618 50.4566 29.618 50.4566C29.618 50.4566 23.5202 52.717 20.32 48.1C17.3014 43.743 20.619 40.1441 20.619 40.1441C20.619 40.1441 19.7184 34.5447 22.4167 31.8927C25.1149 29.2407 28.7138 29.8281 28.7138 29.8281C28.7138 29.8281 28.7138 25.7024 30.814 24.2287C32.9142 22.7549 35.0109 22.7549 35.0109 22.7549C35.0109 22.7549 35.5093 19.1205 38.6098 17.1555C41.6533 15.2262 45.2059 15.3863 45.2059 15.3863H45.213Z" fill="#B37846"/>
<g style="mix-blend-mode:multiply" opacity="0.3">
<path d="M58.4054 26.2909C57.9355 24.9881 57.4407 23.8383 56.711 22.7134C56.0026 21.585 55.0735 20.6417 54.2085 19.6094C57.1417 20.0472 59.4448 23.4289 58.4054 26.2909Z" fill="black"/>
</g>
<g style="mix-blend-mode:multiply" opacity="0.3">
<path d="M45.9106 28.0581C47.3132 27.6487 49.2318 28.0901 49.6946 29.667C50.0684 30.7527 49.8548 31.842 50.0933 32.8886C50.4599 33.8675 51.0758 34.7111 51.5065 35.7221C50.6201 35.1632 49.8548 34.4798 49.2318 33.6397C48.762 32.9277 48.705 31.9559 48.6659 31.1764C48.6196 30.3256 48.5591 29.603 48.0999 29.1687C47.5374 28.6276 46.6831 28.3321 45.9106 28.0616V28.0581Z" fill="black"/>
</g>
<g style="mix-blend-mode:multiply" opacity="0.3">
<path d="M35.0151 22.75C36.8021 23.0953 38.4538 24.1988 39.2298 25.9324C39.8919 27.6802 39.7246 29.5348 39.0162 31.2007C38.8596 30.3286 38.7599 29.4956 38.6247 28.6876C38.493 27.8831 38.3292 27.0964 38.0551 26.4272C37.4322 24.9891 36.1685 23.8927 35.0187 22.7536L35.0151 22.75Z" fill="black"/>
</g>
<g style="mix-blend-mode:multiply" opacity="0.3">
<path d="M20.6191 40.1406C21.7582 40.1869 22.6731 40.4752 23.6876 40.8917C24.0044 41.0412 24.3319 41.1729 24.7164 41.4186C24.3746 41.7033 23.9653 41.8493 23.5595 41.8884C22.3456 41.9988 21.0285 41.3474 20.6191 40.1406Z" fill="black"/>
</g>
<g style="mix-blend-mode:multiply" opacity="0.3">
<path d="M41.3117 44.2739C39.5746 43.6509 38.0973 42.4513 37.0436 40.9384C36.5559 40.2301 36.0718 39.5074 35.6055 38.7635C35.1427 38.0159 34.6942 37.2542 34.3169 36.4141C35.0965 36.9053 35.7657 37.5033 36.3958 38.1405C37.0187 38.7813 37.5918 39.4718 38.1009 40.2158C39.0691 41.6468 40.2296 42.882 41.3153 44.2739H41.3117Z" fill="black"/>
</g>
<g style="mix-blend-mode:multiply" opacity="0.3">
<path d="M29.6183 50.4557C28.1482 50.5696 26.7635 49.815 25.8806 48.683C25.5994 48.2879 25.3645 47.8322 25.3218 47.3125C25.8023 47.5225 26.1832 47.7254 26.557 47.939C27.7246 48.6225 28.7889 49.338 29.6183 50.4557Z" fill="black"/>
</g>
</svg>
