<svg width="78" height="77" viewBox="0 0 78 77" fill="none" xmlns="http://www.w3.org/2000/svg">
<path d="M52.5367 15.8823C52.5367 15.8823 46.7897 10.3731 37.9281 14.4455C35.2924 16.1234 34.8135 18.9969 34.8135 18.9969C34.8135 18.9969 29.5454 18.518 26.4308 22.1115C23.3162 25.705 23.7951 29.0574 23.7951 29.0574C23.7951 29.0574 19.2438 29.7775 18.7649 35.0455C18.2859 38.3979 20.2016 40.3136 20.2016 40.3136C20.2016 40.3136 17.807 45.3439 20.9216 48.4551C24.0363 51.5698 29.7832 49.8919 29.7832 49.8919C29.7832 49.8919 32.8978 52.0487 38.886 50.3708C44.8741 48.6929 43.9162 45.1027 43.9162 45.1027C43.9162 45.1027 48.4676 45.8228 51.0999 41.5092C53.7323 37.1956 52.7778 34.3255 52.7778 34.3255C52.7778 34.3255 58.0459 33.6055 58.5248 25.9428C59.0037 18.2802 52.5367 15.8823 52.5367 15.8823Z" fill="#9F6132"/>
<g style="mix-blend-mode:multiply" opacity="0.3">
<path d="M47.5085 25.9375C48.0075 29.3401 44.4776 32.9605 41.0415 31.9256C42.3443 30.9879 43.3959 30.2846 44.4609 29.2028C45.5359 28.1546 46.4033 27.0795 47.5085 25.9408V25.9375Z" fill="black"/>
</g>
<g style="mix-blend-mode:multiply" opacity="0.3">
<path d="M37.0717 36.7188C38.2774 37.7637 39.5969 38.755 41.171 38.9894C42.4737 39.2439 43.733 39.0463 45.0793 39.1133C43.3512 41.307 39.627 41.5246 37.8989 39.2037C37.3631 38.4937 37.0014 37.6163 37.0717 36.7188Z" fill="black"/>
</g>
<g style="mix-blend-mode:multiply" opacity="0.3">
<path d="M51.8281 18.3631C50.2574 18.0884 48.613 17.9243 47.1462 18.5372C45.9003 18.9927 44.9224 19.8098 43.7368 20.4495C44.0851 17.6798 47.1595 15.5666 49.8354 16.6617C50.6593 16.9933 51.4229 17.5593 51.8281 18.3631Z" fill="black"/>
</g>
<g style="mix-blend-mode:multiply" opacity="0.3">
<path d="M30.0242 25.2188C30.339 26.0962 30.684 26.8263 31.1127 27.3822C31.9432 28.4305 33.2594 28.9764 34.5656 28.9395C35.2253 28.9027 35.9655 28.6214 36.729 28.0956C36.4511 30.3093 33.812 31.1901 31.8964 30.2959C29.9305 29.5759 28.9324 26.9937 30.0209 25.2221L30.0242 25.2188Z" fill="black"/>
</g>
<g style="mix-blend-mode:multiply" opacity="0.3">
<path d="M26.2376 34.3309C25.5242 34.9304 24.9582 35.5064 24.5865 36.1026C23.8899 37.2446 23.8363 38.6679 24.3253 39.8803C24.5899 40.4865 25.109 41.0826 25.8692 41.6185C23.699 42.1242 21.9575 39.954 22.1316 37.8474C22.1283 35.7543 24.2014 33.9223 26.2409 34.3309H26.2376Z" fill="black"/>
</g>
</svg>
