<svg width="160" height="89" viewBox="0 0 160 89" fill="none" xmlns="http://www.w3.org/2000/svg">
<path d="M80 0.5C95.1561 0.5 105.877 1.34736 116.912 3.20898V3.20996C144.655 7.95204 159.5 21.4349 159.5 38.3838C159.5 55.0678 145.115 68.3954 118.203 73.3311L116.912 73.5596C105.88 75.4231 95.1563 76.2695 80 76.2695C64.8433 76.2695 54.1227 75.4232 43.0869 73.5596H43.0879C15.345 68.8175 0.5001 55.3345 0.5 38.3838C0.5 21.4332 15.3445 7.94929 43.0869 3.20898C54.1191 1.34537 64.8433 0.5 80 0.5Z" fill="black" stroke="black"/>
<path d="M70.5225 71.3008L89.4727 71.3008L79.998 87.7109L70.5225 71.3008Z" fill="black" stroke="black"/>
<path d="M37.1884 30.8952C36.5471 30.9732 35.9794 30.9429 35.4854 30.8042C34.9914 30.6742 34.6058 30.4532 34.3284 30.1412C34.0511 29.8292 33.9124 29.4392 33.9124 28.9712C33.9124 28.3559 34.1594 27.7535 34.6534 27.1642C35.1561 26.5662 35.8451 26.0809 36.7204 25.7082V23.7452C36.2438 23.7799 35.7801 23.8059 35.3294 23.8232C34.8874 23.8405 34.4758 23.8405 34.0944 23.8232L34.0164 22.3282C34.3458 22.3629 34.7488 22.3759 35.2254 22.3672C35.7021 22.3499 36.2004 22.3152 36.7204 22.2632V20.1702L38.1634 20.1832V22.0942C38.5968 22.0249 38.9998 21.9512 39.3724 21.8732C39.7538 21.7865 40.0658 21.6955 40.3084 21.6002L40.4644 23.0302C40.1611 23.1429 39.8101 23.2425 39.4114 23.3292C39.0128 23.4159 38.5968 23.4939 38.1634 23.5632V25.2662C38.4668 25.1969 38.7831 25.1449 39.1124 25.1102C39.4418 25.0755 39.7841 25.0582 40.1394 25.0582C40.9714 25.0582 41.6778 25.1882 42.2584 25.4482C42.8478 25.6995 43.2941 26.0419 43.5974 26.4752C43.9008 26.8999 44.0524 27.3809 44.0524 27.9182C44.0524 28.7502 43.8011 29.4045 43.2984 29.8812C42.7958 30.3579 42.1154 30.5919 41.2574 30.5832C40.5901 30.5832 40.0268 30.4185 39.5674 30.0892C39.1168 29.7512 38.7918 29.2529 38.5924 28.5942C38.7918 28.5335 39.0344 28.4425 39.3204 28.3212C39.6064 28.1912 39.8318 28.0699 39.9964 27.9572C40.2131 28.6765 40.6291 29.0362 41.2444 29.0362C41.6258 29.0362 41.9161 28.9279 42.1154 28.7112C42.3148 28.4859 42.4144 28.2085 42.4144 27.8792C42.4144 27.4545 42.2238 27.1035 41.8424 26.8262C41.4611 26.5402 40.8891 26.3972 40.1264 26.3972C39.4331 26.3972 38.7788 26.4839 38.1634 26.6572V29.8942C38.1634 30.2149 38.0898 30.4489 37.9424 30.5962C37.7951 30.7522 37.5438 30.8519 37.1884 30.8952ZM43.8054 24.8762C43.5974 24.6682 43.3158 24.4429 42.9604 24.2002C42.6051 23.9489 42.2411 23.7149 41.8684 23.4982C41.4958 23.2729 41.1621 23.1039 40.8674 22.9912L41.6864 21.8212C41.9984 21.9425 42.3408 22.1072 42.7134 22.3152C43.0861 22.5232 43.4501 22.7442 43.8054 22.9782C44.1608 23.2122 44.4598 23.4375 44.7024 23.6542C44.6158 23.7495 44.5074 23.8795 44.3774 24.0442C44.2561 24.2089 44.1391 24.3692 44.0264 24.5252C43.9224 24.6812 43.8488 24.7982 43.8054 24.8762ZM36.2524 29.5172C36.4171 29.5259 36.5341 29.5085 36.6034 29.4652C36.6814 29.4219 36.7204 29.3439 36.7204 29.2312V27.2422C36.3218 27.4849 36.0054 27.7492 35.7714 28.0352C35.5374 28.3212 35.4204 28.6072 35.4204 28.8932C35.4204 29.0925 35.4941 29.2442 35.6414 29.3482C35.7888 29.4522 35.9924 29.5085 36.2524 29.5172ZM51.9954 31.4412V29.1922C51.5708 29.4869 51.1071 29.7772 50.6044 30.0632C50.1104 30.3405 49.6121 30.5919 49.1094 30.8172C48.6068 31.0512 48.1344 31.2419 47.6924 31.3892C47.6144 31.1899 47.5018 30.9732 47.3544 30.7392C47.2158 30.5139 47.0814 30.3362 46.9514 30.2062C47.3328 30.1022 47.7531 29.9635 48.2124 29.7902C48.6718 29.6082 49.1354 29.4089 49.6034 29.1922C50.0801 28.9669 50.5221 28.7329 50.9294 28.4902H46.8604V27.3592H51.9954V26.8392H50.3054V22.7052H51.7094C51.7788 22.5319 51.8524 22.3542 51.9304 22.1722C52.0084 21.9815 52.0691 21.8212 52.1124 21.6912L53.4124 22.0292C53.3951 22.0812 53.3561 22.1722 53.2954 22.3022C53.2348 22.4322 53.1698 22.5665 53.1004 22.7052H55.1804V26.8392H53.4514V27.3592H58.6774V28.4902H54.5044C54.9118 28.7329 55.3494 28.9669 55.8174 29.1922C56.2941 29.4089 56.7664 29.6082 57.2344 29.7902C57.7024 29.9635 58.1228 30.1022 58.4954 30.2062C58.3654 30.3362 58.2268 30.5139 58.0794 30.7392C57.9408 30.9732 57.8324 31.1899 57.7544 31.3892C57.3211 31.2419 56.8488 31.0512 56.3374 30.8172C55.8348 30.5919 55.3321 30.3405 54.8294 30.0632C54.3354 29.7772 53.8761 29.4869 53.4514 29.1922V31.4412H51.9954ZM49.9934 22.3932V21.6262H47.0164V20.5082H49.9934V19.5982H51.4494V20.5082H53.9714V19.5982H55.4274V20.5082H58.3524V21.6262H55.4274V22.3932H53.9714V21.6262H51.4494V22.3932H49.9934ZM47.4454 27.1252L46.9384 25.8252C47.1204 25.7732 47.3371 25.6995 47.5884 25.6042C47.8484 25.5089 48.1128 25.4005 48.3814 25.2792C48.6501 25.1579 48.9058 25.0365 49.1484 24.9152C49.3911 24.7939 49.5904 24.6855 49.7464 24.5902C49.7551 24.6595 49.7681 24.7765 49.7854 24.9412C49.8028 25.0972 49.8244 25.2619 49.8504 25.4352C49.8764 25.5999 49.8981 25.7385 49.9154 25.8512C49.7334 25.9812 49.4951 26.1242 49.2004 26.2802C48.9144 26.4362 48.6154 26.5879 48.3034 26.7352C47.9914 26.8825 47.7054 27.0125 47.4454 27.1252ZM57.7934 27.0602C57.4728 26.8349 57.1001 26.6052 56.6754 26.3712C56.2508 26.1372 55.8521 25.9509 55.4794 25.8122L56.0904 24.6812C56.5238 24.8545 56.9614 25.0582 57.4034 25.2922C57.8454 25.5175 58.2181 25.7255 58.5214 25.9162C58.3914 26.0809 58.2571 26.2802 58.1184 26.5142C57.9798 26.7395 57.8714 26.9215 57.7934 27.0602ZM49.1484 24.5382C48.8451 24.2609 48.5158 23.9922 48.1604 23.7322C47.8138 23.4722 47.4758 23.2555 47.1464 23.0822L48.0044 22.0682C48.3164 22.2415 48.6631 22.4625 49.0444 22.7312C49.4258 22.9912 49.7638 23.2469 50.0584 23.4982C49.9198 23.6195 49.7551 23.7929 49.5644 24.0182C49.3824 24.2349 49.2438 24.4082 49.1484 24.5382ZM56.2334 24.4602C56.1381 24.3042 56.0081 24.1309 55.8434 23.9402C55.6874 23.7409 55.5444 23.5849 55.4144 23.4722C55.5964 23.3595 55.8088 23.2165 56.0514 23.0432C56.2941 22.8699 56.5281 22.6879 56.7534 22.4972C56.9874 22.3065 57.1694 22.1419 57.2994 22.0032L58.2744 22.9652C57.9624 23.2512 57.6158 23.5285 57.2344 23.7972C56.8618 24.0659 56.5281 24.2869 56.2334 24.4602ZM51.6704 25.8902H53.8154V25.2402H51.6704V25.8902ZM51.6704 24.2912H53.8154V23.6542H51.6704V24.2912ZM61.8234 30.5832C61.7628 30.2279 61.7151 29.7945 61.6804 29.2832C61.6458 28.7632 61.6198 28.1999 61.6024 27.5932C61.5938 26.9779 61.5938 26.3452 61.6024 25.6952C61.6198 25.0452 61.6458 24.4125 61.6804 23.7972C61.7238 23.1732 61.7758 22.5969 61.8364 22.0682C61.9058 21.5395 61.9838 21.0889 62.0704 20.7162L63.5914 21.0282C63.4961 21.3402 63.4138 21.7475 63.3444 22.2502C63.2751 22.7442 63.2188 23.2902 63.1754 23.8882C63.1321 24.4775 63.1018 25.0842 63.0844 25.7082C63.0758 26.3322 63.0801 26.9389 63.0974 27.5282C63.1148 28.1175 63.1451 28.6505 63.1884 29.1272C63.2318 29.6039 63.2881 29.9895 63.3574 30.2842L61.8234 30.5832ZM67.3484 29.8812C65.8491 29.8379 64.9998 29.3482 64.8004 28.4122C64.7484 28.1782 64.7311 27.9182 64.7484 27.6322C64.7658 27.3462 64.8308 27.0299 64.9434 26.6832L66.3084 27.0212C66.2478 27.1859 66.2131 27.3332 66.2044 27.4632C66.2044 27.5932 66.2218 27.7102 66.2564 27.8142C66.3691 28.1262 66.8284 28.2952 67.6344 28.3212C68.0244 28.3299 68.4404 28.3169 68.8824 28.2822C69.3331 28.2389 69.7708 28.1782 70.1954 28.1002C70.6288 28.0222 71.0058 27.9355 71.3264 27.8402C71.3091 27.9615 71.2874 28.1262 71.2614 28.3342C71.2441 28.5422 71.2311 28.7545 71.2224 28.9712C71.2138 29.1792 71.2138 29.3525 71.2224 29.4912C70.8151 29.5952 70.3774 29.6775 69.9094 29.7382C69.4501 29.7989 68.9951 29.8422 68.5444 29.8682C68.1024 29.8855 67.7038 29.8899 67.3484 29.8812ZM65.3984 23.5372L65.3074 21.9382C65.6368 21.9815 66.0398 22.0075 66.5164 22.0162C66.9931 22.0249 67.4871 22.0205 67.9984 22.0032C68.5184 21.9772 69.0124 21.9382 69.4804 21.8862C69.9571 21.8255 70.3514 21.7519 70.6634 21.6652L70.5984 23.2382C70.2518 23.2989 69.8488 23.3552 69.3894 23.4072C68.9301 23.4505 68.4534 23.4852 67.9594 23.5112C67.4741 23.5372 67.0061 23.5545 66.5554 23.5632C66.1134 23.5632 65.7278 23.5545 65.3984 23.5372ZM79.0354 29.8552C79.0094 29.6992 78.9488 29.5172 78.8534 29.3092C78.7581 29.1012 78.6498 28.8975 78.5284 28.6982C78.4158 28.4989 78.3031 28.3385 78.1904 28.2172C79.3258 28.1305 80.3051 27.9745 81.1284 27.7492C81.9604 27.5152 82.5974 27.2032 83.0394 26.8132C83.4901 26.4232 83.7024 25.9422 83.6764 25.3702C83.6244 24.1482 82.7231 23.5762 80.9724 23.6542C80.7038 23.6629 80.3744 23.6975 79.9844 23.7582C79.5944 23.8102 79.1698 23.8795 78.7104 23.9662C78.2598 24.0529 77.8048 24.1569 77.3454 24.2782C76.8948 24.3909 76.4701 24.5122 76.0714 24.6422C75.6728 24.7635 75.3348 24.8849 75.0574 25.0062C75.0574 24.9975 75.0184 24.9109 74.9404 24.7462C74.8711 24.5729 74.7888 24.3779 74.6934 24.1612C74.6068 23.9359 74.5288 23.7409 74.4594 23.5762C74.3901 23.4029 74.3511 23.3119 74.3424 23.3032C74.6111 23.2512 74.9578 23.1819 75.3824 23.0952C75.8071 22.9999 76.2708 22.9002 76.7734 22.7962C77.2848 22.6922 77.7961 22.5969 78.3074 22.5102C78.8188 22.4149 79.2998 22.3369 79.7504 22.2762C80.2098 22.2069 80.5998 22.1679 80.9204 22.1592C81.9171 22.1159 82.7361 22.2242 83.3774 22.4842C84.0188 22.7355 84.4998 23.1039 84.8204 23.5892C85.1498 24.0745 85.3274 24.6465 85.3534 25.3052C85.3794 26.0072 85.2408 26.6182 84.9374 27.1382C84.6428 27.6495 84.2138 28.0872 83.6504 28.4512C83.0871 28.8065 82.4111 29.1012 81.6224 29.3352C80.8424 29.5605 79.9801 29.7339 79.0354 29.8552ZM92.5814 29.1792C92.1481 29.4219 91.7408 29.5215 91.3594 29.4782C90.9781 29.4262 90.6401 29.1792 90.3454 28.7372C90.0768 28.3212 89.8298 27.8315 89.6044 27.2682C89.3791 26.7049 89.1841 26.1069 89.0194 25.4742C88.8634 24.8415 88.7421 24.2089 88.6554 23.5762C88.5774 22.9435 88.5428 22.3499 88.5514 21.7952L90.1374 21.8082C90.1114 22.2329 90.1244 22.6965 90.1764 23.1992C90.2284 23.7019 90.3108 24.2089 90.4234 24.7202C90.5361 25.2315 90.6704 25.7082 90.8264 26.1502C90.9824 26.5835 91.1514 26.9475 91.3334 27.2422C91.4548 27.4502 91.5848 27.5715 91.7234 27.6062C91.8708 27.6322 92.0268 27.5932 92.1914 27.4892C92.3994 27.3505 92.6161 27.1599 92.8414 26.9172C93.0754 26.6745 93.2704 26.4405 93.4264 26.2152C93.4698 26.3452 93.5391 26.4925 93.6344 26.6572C93.7384 26.8219 93.8468 26.9822 93.9594 27.1382C94.0808 27.2942 94.1891 27.4199 94.2844 27.5152C94.0504 27.8619 93.7818 28.1825 93.4784 28.4772C93.1838 28.7719 92.8848 29.0059 92.5814 29.1792ZM97.4954 26.7482C97.4088 26.4969 97.2744 26.1849 97.0924 25.8122C96.9104 25.4395 96.7024 25.0539 96.4684 24.6552C96.2344 24.2479 96.0004 23.8752 95.7664 23.5372C95.5324 23.1905 95.3158 22.9219 95.1164 22.7312L96.3644 21.9382C96.5811 22.1549 96.8194 22.4452 97.0794 22.8092C97.3481 23.1732 97.6081 23.5632 97.8594 23.9792C98.1194 24.3865 98.3491 24.7852 98.5484 25.1752C98.7478 25.5565 98.8908 25.8815 98.9774 26.1502C98.7088 26.2022 98.4358 26.2845 98.1584 26.3972C97.8898 26.5099 97.6688 26.6269 97.4954 26.7482ZM110.404 30.9992C109.503 30.8952 108.706 30.6352 108.012 30.2192C107.319 29.7945 106.777 29.2442 106.387 28.5682C105.997 27.8835 105.802 27.1079 105.802 26.2412C105.802 25.6172 105.954 24.9845 106.257 24.3432C106.561 23.6932 107.007 23.1169 107.596 22.6142C106.903 22.7269 106.214 22.8482 105.529 22.9782C104.845 23.0995 104.221 23.2165 103.657 23.3292C103.103 23.4419 102.674 23.5415 102.37 23.6282L102.019 21.9382C102.305 21.9209 102.7 21.8819 103.202 21.8212C103.714 21.7605 104.286 21.6869 104.918 21.6002C105.56 21.5049 106.218 21.4052 106.894 21.3012C107.579 21.1885 108.238 21.0759 108.87 20.9632C109.512 20.8505 110.084 20.7422 110.586 20.6382C111.098 20.5255 111.496 20.4259 111.782 20.3392L112.198 21.9252C112.068 21.9339 111.904 21.9555 111.704 21.9902C111.514 22.0162 111.293 22.0465 111.041 22.0812C110.573 22.1419 110.118 22.2892 109.676 22.5232C109.243 22.7572 108.853 23.0605 108.506 23.4332C108.168 23.7972 107.9 24.2175 107.7 24.6942C107.501 25.1709 107.401 25.6865 107.401 26.2412C107.401 26.8999 107.57 27.4502 107.908 27.8922C108.246 28.3342 108.706 28.6809 109.286 28.9322C109.876 29.1749 110.534 29.3395 111.262 29.4262C111.132 29.5649 111.007 29.7339 110.885 29.9332C110.764 30.1239 110.66 30.3145 110.573 30.5052C110.487 30.7045 110.43 30.8692 110.404 30.9992ZM121.974 30.6092C121.94 30.4705 121.875 30.3059 121.779 30.1152C121.684 29.9245 121.571 29.7425 121.441 29.5692C121.32 29.3872 121.199 29.2399 121.077 29.1272C122.265 28.9452 123.166 28.5595 123.781 27.9702C124.405 27.3722 124.735 26.6702 124.769 25.8642C124.804 25.2229 124.687 24.6509 124.418 24.1482C124.15 23.6455 123.781 23.2382 123.313 22.9262C122.854 22.6142 122.347 22.4279 121.792 22.3672C121.723 23.1732 121.593 23.9965 121.402 24.8372C121.212 25.6779 120.952 26.4665 120.622 27.2032C120.302 27.9399 119.907 28.5639 119.439 29.0752C119.084 29.4565 118.737 29.6775 118.399 29.7382C118.07 29.7989 117.719 29.7512 117.346 29.5952C116.982 29.4392 116.662 29.1922 116.384 28.8542C116.107 28.5162 115.895 28.1175 115.747 27.6582C115.6 27.1902 115.539 26.6919 115.565 26.1632C115.609 25.3745 115.795 24.6552 116.124 24.0052C116.454 23.3465 116.896 22.7789 117.45 22.3022C118.005 21.8255 118.642 21.4659 119.361 21.2232C120.081 20.9805 120.848 20.8809 121.662 20.9242C122.321 20.9589 122.941 21.1062 123.521 21.3662C124.102 21.6262 124.609 21.9859 125.042 22.4452C125.484 22.8959 125.822 23.4202 126.056 24.0182C126.299 24.6162 126.399 25.2705 126.355 25.9812C126.295 27.1685 125.879 28.1652 125.107 28.9712C124.336 29.7685 123.292 30.3145 121.974 30.6092ZM117.749 27.9832C117.845 28.0525 117.944 28.0872 118.048 28.0872C118.152 28.0872 118.256 28.0352 118.36 27.9312C118.672 27.6192 118.958 27.1772 119.218 26.6052C119.487 26.0332 119.708 25.3875 119.881 24.6682C120.063 23.9489 120.18 23.2165 120.232 22.4712C119.634 22.6099 119.101 22.8612 118.633 23.2252C118.174 23.5892 117.81 24.0312 117.541 24.5512C117.273 25.0625 117.121 25.6259 117.086 26.2412C117.069 26.6485 117.121 27.0039 117.242 27.3072C117.372 27.6019 117.541 27.8272 117.749 27.9832ZM38.2804 50.2062C37.6998 50.2062 37.1798 50.1455 36.7204 50.0242C36.2698 49.8942 35.8798 49.6689 35.5504 49.3482C35.2298 49.0189 34.9654 48.5552 34.7574 47.9572L36.1354 47.2032C36.2481 47.6539 36.4778 47.9962 36.8244 48.2302C37.1711 48.4642 37.6564 48.5812 38.2804 48.5812C38.8351 48.5812 39.4071 48.5552 39.9964 48.5032C40.5858 48.4512 41.1404 48.3775 41.6604 48.2822C42.1804 48.1869 42.6094 48.0785 42.9474 47.9572C42.9474 48.0959 42.9561 48.2779 42.9734 48.5032C42.9994 48.7285 43.0298 48.9495 43.0644 49.1662C43.1078 49.3829 43.1468 49.5519 43.1814 49.6732C42.8348 49.7859 42.3928 49.8812 41.8554 49.9592C41.3181 50.0372 40.7374 50.0979 40.1134 50.1412C39.4981 50.1845 38.8871 50.2062 38.2804 50.2062ZM36.2394 42.5622L36.2264 40.9892C36.4778 41.0672 36.7898 41.1279 37.1624 41.1712C37.5438 41.2145 37.9511 41.2405 38.3844 41.2492C38.8264 41.2579 39.2684 41.2535 39.7104 41.2362C40.1524 41.2102 40.5598 41.1755 40.9324 41.1322C41.3051 41.0802 41.6128 41.0152 41.8554 40.9372V42.5232C41.6388 42.5925 41.3441 42.6489 40.9714 42.6922C40.5988 42.7355 40.1914 42.7702 39.7494 42.7962C39.3074 42.8135 38.8611 42.8179 38.4104 42.8092C37.9598 42.8005 37.5438 42.7745 37.1624 42.7312C36.7811 42.6879 36.4734 42.6315 36.2394 42.5622ZM43.5974 42.8482C43.4328 42.5795 43.2118 42.2935 42.9344 41.9902C42.6571 41.6869 42.4101 41.4399 42.1934 41.2492L42.8954 40.6772C43.0254 40.7812 43.1814 40.9329 43.3634 41.1322C43.5541 41.3315 43.7404 41.5352 43.9224 41.7432C44.1044 41.9425 44.2431 42.1159 44.3384 42.2632L43.5974 42.8482ZM44.7544 41.8602C44.5898 41.5915 44.3688 41.3099 44.0914 41.0152C43.8141 40.7119 43.5628 40.4692 43.3374 40.2872L44.0524 39.7022C44.1824 39.8062 44.3384 39.9579 44.5204 40.1572C44.7111 40.3479 44.8974 40.5472 45.0794 40.7552C45.2614 40.9545 45.4001 41.1279 45.4954 41.2752L44.7544 41.8602ZM49.0184 51.4152V46.7352C48.7844 47.1339 48.5461 47.5109 48.3034 47.8662C48.0608 48.2215 47.8311 48.5249 47.6144 48.7762C47.4584 48.6202 47.2591 48.4469 47.0164 48.2562C46.7824 48.0655 46.5701 47.9269 46.3794 47.8402C46.6134 47.6235 46.8561 47.3462 47.1074 47.0082C47.3674 46.6615 47.6188 46.2889 47.8614 45.8902C48.1128 45.4829 48.3381 45.0842 48.5374 44.6942C48.7454 44.2955 48.9058 43.9359 49.0184 43.6152V43.5502H46.8864V42.1982H49.0184V39.7022H50.5134V42.1982H52.0344V43.5502H50.5134V44.4342C50.6954 44.6595 50.9121 44.9109 51.1634 45.1882C51.4148 45.4569 51.6661 45.7125 51.9174 45.9552C52.1774 46.1979 52.3898 46.3842 52.5544 46.5142V40.1832H58.0144V50.9992H52.5544V46.5272C52.4591 46.6052 52.3464 46.7135 52.2164 46.8522C52.0951 46.9822 51.9738 47.1165 51.8524 47.2552C51.7398 47.3852 51.6531 47.4935 51.5924 47.5802C51.4538 47.4415 51.2891 47.2682 51.0984 47.0602C50.9078 46.8522 50.7128 46.6312 50.5134 46.3972V51.4152H49.0184ZM54.0494 49.6472H56.5194V47.7622H54.0494V49.6472ZM54.0494 46.4492H56.5194V44.6162H54.0494V46.4492ZM54.0494 43.3162H56.5194V41.5352H54.0494V43.3162ZM65.4764 51.5062C65.4071 51.3242 65.2988 51.1119 65.1514 50.8692C65.0041 50.6265 64.8524 50.4272 64.6964 50.2712C65.5371 50.0459 66.1828 49.7252 66.6334 49.3092C67.0841 48.8845 67.3918 48.3255 67.5564 47.6322C67.7211 46.9302 67.7904 46.0592 67.7644 45.0192L69.1944 45.0842C69.1944 45.4222 69.1858 45.7472 69.1684 46.0592C69.1598 46.3712 69.1338 46.6659 69.0904 46.9432C69.3244 47.7145 69.7361 48.3819 70.3254 48.9452C70.9148 49.5085 71.6298 49.9289 72.4704 50.2062C72.3231 50.3449 72.1584 50.5442 71.9764 50.8042C71.7944 51.0642 71.6558 51.2852 71.5604 51.4672C70.2344 50.9472 69.2421 50.0849 68.5834 48.8802C68.3061 49.5129 67.9161 50.0459 67.4134 50.4792C66.9108 50.9039 66.2651 51.2462 65.4764 51.5062ZM65.5414 45.8252C65.4634 45.6432 65.3551 45.4395 65.2164 45.2142C65.0864 44.9889 64.9434 44.7982 64.7874 44.6422C65.6194 44.4429 66.2478 44.1352 66.6724 43.7192C67.1058 43.3032 67.3918 42.7615 67.5304 42.0942C67.6778 41.4182 67.7384 40.5992 67.7124 39.6372L69.1554 39.6892C69.1554 40.0185 69.1468 40.3349 69.1294 40.6382C69.1121 40.9329 69.0861 41.2145 69.0514 41.4832C69.5021 43.0085 70.6071 44.0269 72.3664 44.5382C72.2191 44.6942 72.0631 44.8935 71.8984 45.1362C71.7424 45.3702 71.6168 45.5825 71.5214 45.7732C70.8628 45.5219 70.2864 45.2099 69.7924 44.8372C69.3071 44.4559 68.8954 43.9749 68.5574 43.3942C68.2888 44.0009 67.9118 44.4992 67.4264 44.8892C66.9411 45.2792 66.3128 45.5912 65.5414 45.8252ZM60.9004 51.1552V47.4112H64.6704V51.1552H60.9004ZM60.4454 43.0822V41.8992H64.9044V43.0822H60.4454ZM61.0174 41.2622V40.0402H64.4624V41.2622H61.0174ZM61.0174 46.7482V45.5522H64.4624V46.7482H61.0174ZM61.0174 44.9152V43.7192H64.4624V44.9152H61.0174ZM66.4904 43.0172C66.2998 42.9392 66.0701 42.8655 65.8014 42.7962C65.5328 42.7182 65.3074 42.6705 65.1254 42.6532C65.2294 42.4452 65.3248 42.1939 65.4114 41.8992C65.5068 41.6045 65.5891 41.3099 65.6584 41.0152C65.7278 40.7119 65.7754 40.4605 65.8014 40.2612L67.1144 40.4432C67.0971 40.6599 67.0581 40.9285 66.9974 41.2492C66.9368 41.5699 66.8588 41.8905 66.7634 42.2112C66.6768 42.5232 66.5858 42.7919 66.4904 43.0172ZM66.3994 48.8022C66.2088 48.7242 65.9791 48.6462 65.7104 48.5682C65.4504 48.4815 65.2294 48.4252 65.0474 48.3992C65.1601 48.1912 65.2641 47.9399 65.3594 47.6452C65.4634 47.3505 65.5501 47.0559 65.6194 46.7612C65.6974 46.4665 65.7538 46.2195 65.7884 46.0202L67.0884 46.2542C67.0711 46.4709 67.0234 46.7395 66.9454 47.0602C66.8761 47.3722 66.7938 47.6842 66.6984 47.9962C66.6031 48.3082 66.5034 48.5769 66.3994 48.8022ZM70.7544 42.9132C70.6158 42.8005 70.4208 42.6749 70.1694 42.5362C69.9181 42.3975 69.7101 42.2979 69.5454 42.2372C69.6928 42.0552 69.8358 41.8429 69.9744 41.6002C70.1131 41.3489 70.2388 41.0975 70.3514 40.8462C70.4641 40.5862 70.5551 40.3522 70.6244 40.1442L71.8854 40.6382C71.8161 40.8549 71.7164 41.1019 71.5864 41.3792C71.4651 41.6565 71.3308 41.9295 71.1834 42.1982C71.0361 42.4669 70.8931 42.7052 70.7544 42.9132ZM70.7804 48.5422C70.6418 48.4295 70.4468 48.3039 70.1954 48.1652C69.9441 48.0179 69.7361 47.9139 69.5714 47.8532C69.7881 47.5845 69.9918 47.2595 70.1824 46.8782C70.3731 46.4969 70.5204 46.1545 70.6244 45.8512L71.8854 46.3452C71.7728 46.6745 71.6124 47.0472 71.4044 47.4632C71.2051 47.8705 70.9971 48.2302 70.7804 48.5422ZM62.2264 49.9592H63.3444V48.6072H62.2264V49.9592ZM80.1794 50.7262C79.5034 50.6915 78.9618 50.4922 78.5544 50.1282C78.1471 49.7642 77.9478 49.3135 77.9564 48.7762C77.9651 48.4469 78.0734 48.1435 78.2814 47.8662C78.4894 47.5802 78.7841 47.3549 79.1654 47.1902C79.5468 47.0169 80.0018 46.9302 80.5304 46.9302C80.8078 46.9302 81.0678 46.9432 81.3104 46.9692C81.3018 46.5879 81.2888 46.1545 81.2714 45.6692C81.2541 45.1839 81.2368 44.6552 81.2194 44.0832C80.6821 44.1179 80.1621 44.1395 79.6594 44.1482C79.1568 44.1482 78.7278 44.1395 78.3724 44.1222L78.2684 42.5362C78.5891 42.5882 79.0094 42.6185 79.5294 42.6272C80.0581 42.6272 80.6128 42.6142 81.1934 42.5882C81.1848 42.2415 81.1761 41.8905 81.1674 41.5352C81.1674 41.1712 81.1674 40.8029 81.1674 40.4302H82.6884C82.6798 40.7595 82.6711 41.0975 82.6624 41.4442C82.6624 41.7909 82.6624 42.1419 82.6624 42.4972C83.1824 42.4539 83.6548 42.4062 84.0794 42.3542C84.5041 42.2935 84.8248 42.2285 85.0414 42.1592V43.7192C84.7988 43.7712 84.4694 43.8189 84.0534 43.8622C83.6374 43.9055 83.1868 43.9489 82.7014 43.9922C82.7188 44.6249 82.7404 45.2315 82.7664 45.8122C82.7924 46.3842 82.8141 46.8869 82.8314 47.3202C83.3168 47.4935 83.7848 47.7145 84.2354 47.9832C84.6861 48.2519 85.1281 48.5509 85.5614 48.8802C85.4661 48.9582 85.3534 49.0795 85.2234 49.2442C85.1021 49.4002 84.9894 49.5649 84.8854 49.7382C84.7814 49.9029 84.7034 50.0415 84.6514 50.1542C84.0708 49.6255 83.4728 49.2009 82.8574 48.8802C82.7968 49.5649 82.5324 50.0545 82.0644 50.3492C81.6051 50.6352 80.9768 50.7609 80.1794 50.7262ZM75.3564 50.8822C75.2958 50.5442 75.2481 50.1109 75.2134 49.5822C75.1788 49.0449 75.1528 48.4512 75.1354 47.8012C75.1268 47.1425 75.1268 46.4665 75.1354 45.7732C75.1441 45.0712 75.1658 44.3865 75.2004 43.7192C75.2351 43.0519 75.2784 42.4365 75.3304 41.8732C75.3911 41.3099 75.4604 40.8419 75.5384 40.4692L77.0204 40.8202C76.9251 41.1235 76.8428 41.5309 76.7734 42.0422C76.7128 42.5535 76.6651 43.1255 76.6304 43.7582C76.5958 44.3822 76.5741 45.0279 76.5654 45.6952C76.5568 46.3625 76.5611 47.0125 76.5784 47.6452C76.6044 48.2692 76.6391 48.8412 76.6824 49.3612C76.7344 49.8812 76.7951 50.3015 76.8644 50.6222L75.3564 50.8822ZM80.2964 49.4002C80.6518 49.4002 80.9161 49.3309 81.0894 49.1922C81.2714 49.0449 81.3624 48.7849 81.3624 48.4122V48.3212C81.0678 48.2519 80.7601 48.2085 80.4394 48.1912C80.1188 48.1825 79.8588 48.2345 79.6594 48.3472C79.4688 48.4599 79.3691 48.6072 79.3604 48.7892C79.3518 48.9712 79.4341 49.1185 79.6074 49.2312C79.7808 49.3439 80.0104 49.4002 80.2964 49.4002ZM92.8804 50.2062C92.2998 50.2062 91.7798 50.1455 91.3204 50.0242C90.8698 49.8942 90.4798 49.6645 90.1504 49.3352C89.8298 49.0059 89.5654 48.5465 89.3574 47.9572L90.7354 47.2032C90.8481 47.6539 91.0778 47.9962 91.4244 48.2302C91.7711 48.4642 92.2564 48.5812 92.8804 48.5812C93.4351 48.5812 94.0071 48.5552 94.5964 48.5032C95.1858 48.4512 95.7404 48.3775 96.2604 48.2822C96.7804 48.1869 97.2094 48.0785 97.5474 47.9572C97.5474 48.0959 97.5561 48.2779 97.5734 48.5032C97.5994 48.7285 97.6298 48.9495 97.6644 49.1662C97.7078 49.3829 97.7468 49.5519 97.7814 49.6732C97.4348 49.7859 96.9928 49.8812 96.4554 49.9592C95.9181 50.0372 95.3374 50.0979 94.7134 50.1412C94.0981 50.1845 93.4871 50.2062 92.8804 50.2062ZM90.8394 42.5622L90.8264 40.9892C91.0778 41.0672 91.3898 41.1279 91.7624 41.1712C92.1438 41.2145 92.5511 41.2405 92.9844 41.2492C93.4264 41.2579 93.8684 41.2535 94.3104 41.2362C94.7524 41.2102 95.1598 41.1755 95.5324 41.1322C95.9051 41.0802 96.2128 41.0152 96.4554 40.9372V42.5232C96.2388 42.5925 95.9441 42.6489 95.5714 42.6922C95.1988 42.7355 94.7914 42.7702 94.3494 42.7962C93.9074 42.8135 93.4611 42.8179 93.0104 42.8092C92.5598 42.8005 92.1438 42.7745 91.7624 42.7312C91.3811 42.6879 91.0734 42.6315 90.8394 42.5622ZM106.114 51.2462C106.088 51.0989 106.036 50.9212 105.958 50.7132C105.889 50.5139 105.807 50.3189 105.711 50.1282C105.616 49.9289 105.516 49.7685 105.412 49.6472C106.86 49.7599 107.999 49.6515 108.831 49.3222C109.663 48.9842 110.079 48.4599 110.079 47.7492C110.079 47.3679 109.919 47.0645 109.598 46.8392C109.286 46.6139 108.888 46.5012 108.402 46.5012C107.839 46.5012 107.267 46.6095 106.686 46.8262C106.106 47.0342 105.581 47.3895 105.113 47.8922C105.079 47.9355 105.04 47.9832 104.996 48.0352C104.962 48.0785 104.923 48.1219 104.879 48.1652L103.618 47.2682C104.034 46.8609 104.39 46.3105 104.684 45.6172C104.979 44.9239 105.209 44.1959 105.373 43.4332C104.169 43.4765 103.142 43.4765 102.292 43.4332L102.188 41.8992C102.57 41.9512 103.064 41.9859 103.67 42.0032C104.277 42.0119 104.931 42.0032 105.633 41.9772C105.737 41.1539 105.776 40.4085 105.75 39.7412H107.388C107.388 40.3739 107.336 41.0932 107.232 41.8992C107.839 41.8559 108.424 41.8039 108.987 41.7432C109.551 41.6825 110.062 41.6175 110.521 41.5482C110.981 41.4702 111.353 41.3879 111.639 41.3012L111.535 42.8352C111.024 42.9479 110.361 43.0519 109.546 43.1472C108.732 43.2339 107.878 43.3032 106.985 43.3552C106.899 43.7539 106.799 44.1525 106.686 44.5512C106.582 44.9499 106.457 45.3355 106.309 45.7082C106.691 45.5089 107.063 45.3572 107.427 45.2532C107.8 45.1405 108.168 45.0842 108.532 45.0842C109.148 45.0755 109.694 45.1795 110.17 45.3962C110.656 45.6129 111.037 45.9249 111.314 46.3322C111.592 46.7309 111.73 47.2119 111.73 47.7752C111.73 48.9192 111.249 49.7989 110.287 50.4142C109.325 51.0295 107.934 51.3069 106.114 51.2462ZM119.972 51.1812C119.946 51.0512 119.894 50.8865 119.816 50.6872C119.747 50.4879 119.66 50.2885 119.556 50.0892C119.452 49.8899 119.348 49.7339 119.244 49.6212C120.631 49.6559 121.688 49.4912 122.416 49.1272C123.153 48.7632 123.521 48.2475 123.521 47.5802C123.521 47.1902 123.365 46.8869 123.053 46.6702C122.741 46.4535 122.334 46.3452 121.831 46.3452C121.441 46.3452 121.025 46.4059 120.583 46.5272C120.141 46.6399 119.721 46.8305 119.322 47.0992C118.932 47.3592 118.603 47.7102 118.334 48.1522L116.943 47.5412C117.117 47.2379 117.264 46.8609 117.385 46.4102C117.515 45.9509 117.619 45.4742 117.697 44.9802C117.775 44.4862 117.832 44.0182 117.866 43.5762C117.901 43.1342 117.905 42.7702 117.879 42.4842L119.504 42.6792C119.513 43.1039 119.478 43.6065 119.4 44.1872C119.322 44.7592 119.201 45.3269 119.036 45.8902C119.496 45.5869 119.977 45.3529 120.479 45.1882C120.982 45.0235 121.454 44.9412 121.896 44.9412C122.572 44.9412 123.157 45.0582 123.651 45.2922C124.154 45.5175 124.544 45.8339 124.821 46.2412C125.099 46.6399 125.237 47.0992 125.237 47.6192C125.237 48.2779 125.047 48.8715 124.665 49.4002C124.293 49.9202 123.716 50.3362 122.936 50.6482C122.165 50.9602 121.177 51.1379 119.972 51.1812ZM122.13 42.8482C121.914 42.6749 121.654 42.5015 121.35 42.3282C121.056 42.1549 120.744 41.9902 120.414 41.8342C120.085 41.6782 119.76 41.5439 119.439 41.4312C119.127 41.3099 118.85 41.2275 118.607 41.1842L119.387 39.8322C119.613 39.8929 119.881 39.9882 120.193 40.1182C120.505 40.2395 120.83 40.3782 121.168 40.5342C121.515 40.6902 121.84 40.8462 122.143 41.0022C122.455 41.1582 122.711 41.3012 122.91 41.4312L122.13 42.8482Z" fill="white"/>
</svg>
