<svg width="160" height="93" viewBox="0 0 160 93" fill="none" xmlns="http://www.w3.org/2000/svg">
<path d="M80 0.5C95.1561 0.5 105.877 1.34736 116.912 3.20898V3.20996C144.655 7.95204 159.5 21.4349 159.5 38.3838C159.5 55.0678 145.115 68.3954 118.203 73.3311L116.912 73.5596C105.88 75.4231 95.1563 76.2695 80 76.2695C64.8433 76.2695 54.1227 75.4232 43.0869 73.5596H43.0879C15.345 68.8175 0.5001 55.3345 0.5 38.3838C0.5 21.4332 15.3445 7.94929 43.0869 3.20898C54.1191 1.34537 64.8433 0.5 80 0.5Z" fill="black" stroke="black"/>
<path d="M71.7177 75.8044L84.3287 69.3731L85.3667 86.9884L71.7177 75.8044Z" fill="black" stroke="black"/>
<path d="M31.5204 33.949V31.7C31.0958 31.9947 30.6321 32.285 30.1294 32.571C29.6354 32.8483 29.1371 33.0997 28.6344 33.325C28.1318 33.559 27.6594 33.7497 27.2174 33.897C27.1394 33.6977 27.0268 33.481 26.8794 33.247C26.7408 33.0217 26.6064 32.844 26.4764 32.714C26.8578 32.61 27.2781 32.4713 27.7374 32.298C28.1968 32.116 28.6604 31.9167 29.1284 31.7C29.6051 31.4747 30.0471 31.2407 30.4544 30.998H26.3854V29.867H31.5204V29.347H29.8304V25.213H31.2344C31.3038 25.0397 31.3774 24.862 31.4554 24.68C31.5334 24.4893 31.5941 24.329 31.6374 24.199L32.9374 24.537C32.9201 24.589 32.8811 24.68 32.8204 24.81C32.7598 24.94 32.6948 25.0743 32.6254 25.213H34.7054V29.347H32.9764V29.867H38.2024V30.998H34.0294C34.4368 31.2407 34.8744 31.4747 35.3424 31.7C35.8191 31.9167 36.2914 32.116 36.7594 32.298C37.2274 32.4713 37.6478 32.61 38.0204 32.714C37.8904 32.844 37.7518 33.0217 37.6044 33.247C37.4658 33.481 37.3574 33.6977 37.2794 33.897C36.8461 33.7497 36.3738 33.559 35.8624 33.325C35.3598 33.0997 34.8571 32.8483 34.3544 32.571C33.8604 32.285 33.4011 31.9947 32.9764 31.7V33.949H31.5204ZM29.5184 24.901V24.134H26.5414V23.016H29.5184V22.106H30.9744V23.016H33.4964V22.106H34.9524V23.016H37.8774V24.134H34.9524V24.901H33.4964V24.134H30.9744V24.901H29.5184ZM26.9704 29.633L26.4634 28.333C26.6454 28.281 26.8621 28.2073 27.1134 28.112C27.3734 28.0167 27.6378 27.9083 27.9064 27.787C28.1751 27.6657 28.4308 27.5443 28.6734 27.423C28.9161 27.3017 29.1154 27.1933 29.2714 27.098C29.2801 27.1673 29.2931 27.2843 29.3104 27.449C29.3278 27.605 29.3494 27.7697 29.3754 27.943C29.4014 28.1077 29.4231 28.2463 29.4404 28.359C29.2584 28.489 29.0201 28.632 28.7254 28.788C28.4394 28.944 28.1404 29.0957 27.8284 29.243C27.5164 29.3903 27.2304 29.5203 26.9704 29.633ZM37.3184 29.568C36.9978 29.3427 36.6251 29.113 36.2004 28.879C35.7758 28.645 35.3771 28.4587 35.0044 28.32L35.6154 27.189C36.0488 27.3623 36.4864 27.566 36.9284 27.8C37.3704 28.0253 37.7431 28.2333 38.0464 28.424C37.9164 28.5887 37.7821 28.788 37.6434 29.022C37.5048 29.2473 37.3964 29.4293 37.3184 29.568ZM28.6734 27.046C28.3701 26.7687 28.0408 26.5 27.6854 26.24C27.3388 25.98 27.0008 25.7633 26.6714 25.59L27.5294 24.576C27.8414 24.7493 28.1881 24.9703 28.5694 25.239C28.9508 25.499 29.2888 25.7547 29.5834 26.006C29.4448 26.1273 29.2801 26.3007 29.0894 26.526C28.9074 26.7427 28.7688 26.916 28.6734 27.046ZM35.7584 26.968C35.6631 26.812 35.5331 26.6387 35.3684 26.448C35.2124 26.2487 35.0694 26.0927 34.9394 25.98C35.1214 25.8673 35.3338 25.7243 35.5764 25.551C35.8191 25.3777 36.0531 25.1957 36.2784 25.005C36.5124 24.8143 36.6944 24.6497 36.8244 24.511L37.7994 25.473C37.4874 25.759 37.1408 26.0363 36.7594 26.305C36.3868 26.5737 36.0531 26.7947 35.7584 26.968ZM31.1954 28.398H33.3404V27.748H31.1954V28.398ZM31.1954 26.799H33.3404V26.162H31.1954V26.799ZM40.8284 34.066C40.6898 33.9187 40.5078 33.754 40.2824 33.572C40.0571 33.39 39.8361 33.2513 39.6194 33.156C40.2261 32.7227 40.6334 32.2157 40.8414 31.635C41.0494 31.0543 41.1534 30.3393 41.1534 29.49V28.632C40.8674 28.7273 40.5901 28.8053 40.3214 28.866C40.2608 28.658 40.1698 28.4327 40.0484 28.19C39.9271 27.9387 39.7971 27.735 39.6584 27.579C40.1784 27.4837 40.6768 27.3537 41.1534 27.189C41.6301 27.0243 42.0808 26.8337 42.5054 26.617C41.9161 26.1057 41.4091 25.5163 40.9844 24.849H40.0224V23.562H42.8694V22.054H44.4814V23.562H47.1334V24.849H46.3404C46.1498 25.1783 45.9288 25.4903 45.6774 25.785C45.4348 26.0797 45.1704 26.3527 44.8844 26.604C45.3178 26.8207 45.7598 26.9983 46.2104 27.137C46.6611 27.2757 47.0988 27.3797 47.5234 27.449V23.38H48.9664V30.79H47.5234V27.774C47.4368 27.9213 47.3501 28.086 47.2634 28.268C47.1854 28.4413 47.1118 28.606 47.0424 28.762C46.9211 28.7273 46.7954 28.697 46.6654 28.671C46.5354 28.6363 46.4098 28.6017 46.2884 28.567V33.923H44.7934V31.726H42.3754C42.2454 32.1767 42.0548 32.597 41.8034 32.987C41.5608 33.377 41.2358 33.7367 40.8284 34.066ZM48.6544 33.936C48.6458 33.7973 48.6241 33.6283 48.5894 33.429C48.5548 33.2383 48.5158 33.052 48.4724 32.87C48.4291 32.6793 48.3814 32.5277 48.3294 32.415H49.4084C49.5818 32.415 49.7074 32.389 49.7854 32.337C49.8634 32.2763 49.9024 32.1637 49.9024 31.999V22.184H51.3714V32.623C51.3714 33.0823 51.2414 33.416 50.9814 33.624C50.7214 33.832 50.3228 33.936 49.7854 33.936H48.6544ZM42.6484 28.619H44.7934V28.034C44.6028 27.956 44.4164 27.8693 44.2344 27.774C44.0611 27.6787 43.8878 27.579 43.7144 27.475C43.5498 27.579 43.3764 27.6787 43.1944 27.774C43.0211 27.8693 42.8391 27.9647 42.6484 28.06V28.619ZM42.5964 30.582H44.7934V29.763H42.6484C42.6398 29.9017 42.6311 30.0403 42.6224 30.179C42.6224 30.3177 42.6138 30.452 42.5964 30.582ZM43.6754 25.889C44.1088 25.551 44.4641 25.2043 44.7414 24.849H42.5574C42.8868 25.2303 43.2594 25.577 43.6754 25.889ZM61.3944 33.975V26.747H60.4974V32.441H59.1324V25.473H61.3944V23.965H58.8204V22.678H65.4504V23.965H62.7334V25.473H65.1644L65.1514 31.154C65.1514 31.5787 65.0431 31.8863 64.8264 32.077C64.6184 32.2677 64.2718 32.363 63.7864 32.363H63.1364C63.1278 32.2417 63.1061 32.0857 63.0714 31.895C63.0368 31.6957 62.9978 31.505 62.9544 31.323C62.9198 31.1323 62.8808 30.985 62.8374 30.881H63.4224C63.5871 30.881 63.6868 30.855 63.7214 30.803C63.7648 30.751 63.7864 30.647 63.7864 30.491V26.747H62.7334V33.975H61.3944ZM53.9194 33.416V23.822H55.0894C55.1674 23.5707 55.2498 23.276 55.3364 22.938C55.4318 22.6 55.5054 22.3227 55.5574 22.106L57.1174 22.223C57.0568 22.431 56.9744 22.6953 56.8704 23.016C56.7751 23.328 56.6884 23.5967 56.6104 23.822H58.3914V27.956H55.3624V29.009H58.5084V33.416H53.9194ZM55.3624 32.142H57.0654V30.283H55.3624V32.142ZM55.3624 26.734H56.9744V25.031H55.3624V26.734ZM78.1644 31.414C77.8784 31.258 77.5318 31.05 77.1244 30.79C76.7258 30.53 76.2968 30.244 75.8374 29.932C75.3868 29.6113 74.9361 29.2863 74.4854 28.957C74.0348 28.619 73.6144 28.294 73.2244 27.982C72.8344 27.67 72.5094 27.397 72.2494 27.163C72.1194 27.0417 72.0198 26.981 71.9504 26.981C71.8811 26.981 71.7858 27.033 71.6644 27.137C71.3958 27.3883 71.0838 27.6613 70.7284 27.956C70.3731 28.242 70.0048 28.528 69.6234 28.814C69.2508 29.1 68.8868 29.3643 68.5314 29.607L67.3094 28.268C67.5694 28.1467 67.8858 27.9777 68.2584 27.761C68.6311 27.5443 69.0124 27.306 69.4024 27.046C69.8011 26.7773 70.1738 26.513 70.5204 26.253C70.8671 25.9843 71.1488 25.7417 71.3654 25.525C71.5821 25.2997 71.7814 25.1957 71.9634 25.213C72.1541 25.2303 72.3708 25.343 72.6134 25.551C72.8128 25.7157 73.1074 25.9497 73.4974 26.253C73.8961 26.5477 74.3468 26.8727 74.8494 27.228C75.3521 27.5833 75.8678 27.9387 76.3964 28.294C76.9338 28.6407 77.4451 28.957 77.9304 29.243C78.4244 29.529 78.8534 29.7457 79.2174 29.893C79.0961 29.9883 78.9618 30.1313 78.8144 30.322C78.6758 30.504 78.5458 30.6947 78.4244 30.894C78.3031 31.0933 78.2164 31.2667 78.1644 31.414ZM87.8494 33.117C87.8148 32.9783 87.7498 32.8137 87.6544 32.623C87.5591 32.4323 87.4464 32.2503 87.3164 32.077C87.1951 31.895 87.0738 31.7477 86.9524 31.635C88.1398 31.453 89.0411 31.0673 89.6564 30.478C90.2804 29.88 90.6098 29.178 90.6444 28.372C90.6791 27.7307 90.5621 27.1587 90.2934 26.656C90.0248 26.1533 89.6564 25.746 89.1884 25.434C88.7291 25.122 88.2221 24.9357 87.6674 24.875C87.5981 25.681 87.4681 26.5043 87.2774 27.345C87.0868 28.1857 86.8268 28.9743 86.4974 29.711C86.1768 30.4477 85.7824 31.0717 85.3144 31.583C84.9591 31.9643 84.6124 32.1853 84.2744 32.246C83.9451 32.3067 83.5941 32.259 83.2214 32.103C82.8574 31.947 82.5368 31.7 82.2594 31.362C81.9821 31.024 81.7698 30.6253 81.6224 30.166C81.4751 29.698 81.4144 29.1997 81.4404 28.671C81.4838 27.8823 81.6701 27.163 81.9994 26.513C82.3288 25.8543 82.7708 25.2867 83.3254 24.81C83.8801 24.3333 84.5171 23.9737 85.2364 23.731C85.9558 23.4883 86.7228 23.3887 87.5374 23.432C88.1961 23.4667 88.8158 23.614 89.3964 23.874C89.9771 24.134 90.4841 24.4937 90.9174 24.953C91.3594 25.4037 91.6974 25.928 91.9314 26.526C92.1741 27.124 92.2738 27.7783 92.2304 28.489C92.1698 29.6763 91.7538 30.673 90.9824 31.479C90.2111 32.2763 89.1668 32.8223 87.8494 33.117ZM83.6244 30.491C83.7198 30.5603 83.8194 30.595 83.9234 30.595C84.0274 30.595 84.1314 30.543 84.2354 30.439C84.5474 30.127 84.8334 29.685 85.0934 29.113C85.3621 28.541 85.5831 27.8953 85.7564 27.176C85.9384 26.4567 86.0554 25.7243 86.1074 24.979C85.5094 25.1177 84.9764 25.369 84.5084 25.733C84.0491 26.097 83.6851 26.539 83.4164 27.059C83.1478 27.5703 82.9961 28.1337 82.9614 28.749C82.9441 29.1563 82.9961 29.5117 83.1174 29.815C83.2474 30.1097 83.4164 30.335 83.6244 30.491ZM99.7054 32.714C99.1248 32.714 98.6048 32.6533 98.1454 32.532C97.6948 32.402 97.3048 32.1767 96.9754 31.856C96.6548 31.5267 96.3904 31.063 96.1824 30.465L97.5604 29.711C97.6731 30.1617 97.9028 30.504 98.2494 30.738C98.5961 30.972 99.0814 31.089 99.7054 31.089C100.26 31.089 100.832 31.063 101.421 31.011C102.011 30.959 102.565 30.8853 103.085 30.79C103.605 30.6947 104.034 30.5863 104.372 30.465C104.372 30.6037 104.381 30.7857 104.398 31.011C104.424 31.2363 104.455 31.4573 104.489 31.674C104.533 31.8907 104.572 32.0597 104.606 32.181C104.26 32.2937 103.818 32.389 103.28 32.467C102.743 32.545 102.162 32.6057 101.538 32.649C100.923 32.6923 100.312 32.714 99.7054 32.714ZM97.6644 25.07L97.6514 23.497C97.9028 23.575 98.2148 23.6357 98.5874 23.679C98.9688 23.7223 99.3761 23.7483 99.8094 23.757C100.251 23.7657 100.693 23.7613 101.135 23.744C101.577 23.718 101.985 23.6833 102.357 23.64C102.73 23.588 103.038 23.523 103.28 23.445V25.031C103.064 25.1003 102.769 25.1567 102.396 25.2C102.024 25.2433 101.616 25.278 101.174 25.304C100.732 25.3213 100.286 25.3257 99.8354 25.317C99.3848 25.3083 98.9688 25.2823 98.5874 25.239C98.2061 25.1957 97.8984 25.1393 97.6644 25.07ZM105.022 25.356C104.858 25.0873 104.637 24.8013 104.359 24.498C104.082 24.1947 103.835 23.9477 103.618 23.757L104.32 23.185C104.45 23.289 104.606 23.4407 104.788 23.64C104.979 23.8393 105.165 24.043 105.347 24.251C105.529 24.4503 105.668 24.6237 105.763 24.771L105.022 25.356ZM106.179 24.368C106.015 24.0993 105.794 23.8177 105.516 23.523C105.239 23.2197 104.988 22.977 104.762 22.795L105.477 22.21C105.607 22.314 105.763 22.4657 105.945 22.665C106.136 22.8557 106.322 23.055 106.504 23.263C106.686 23.4623 106.825 23.6357 106.92 23.783L106.179 24.368ZM110.443 33.923V29.243C110.209 29.6417 109.971 30.0187 109.728 30.374C109.486 30.7293 109.256 31.0327 109.039 31.284C108.883 31.128 108.684 30.9547 108.441 30.764C108.207 30.5733 107.995 30.4347 107.804 30.348C108.038 30.1313 108.281 29.854 108.532 29.516C108.792 29.1693 109.044 28.7967 109.286 28.398C109.538 27.9907 109.763 27.592 109.962 27.202C110.17 26.8033 110.331 26.4437 110.443 26.123V26.058H108.311V24.706H110.443V22.21H111.938V24.706H113.459V26.058H111.938V26.942C112.12 27.1673 112.337 27.4187 112.588 27.696C112.84 27.9647 113.091 28.2203 113.342 28.463C113.602 28.7057 113.815 28.892 113.979 29.022V22.691H119.439V33.507H113.979V29.035C113.884 29.113 113.771 29.2213 113.641 29.36C113.52 29.49 113.399 29.6243 113.277 29.763C113.165 29.893 113.078 30.0013 113.017 30.088C112.879 29.9493 112.714 29.776 112.523 29.568C112.333 29.36 112.138 29.139 111.938 28.905V33.923H110.443ZM115.474 32.155H117.944V30.27H115.474V32.155ZM115.474 28.957H117.944V27.124H115.474V28.957ZM115.474 25.824H117.944V24.043H115.474V25.824ZM126.901 34.014C126.832 33.832 126.724 33.6197 126.576 33.377C126.429 33.1343 126.277 32.935 126.121 32.779C126.962 32.5537 127.608 32.233 128.058 31.817C128.509 31.3923 128.817 30.8333 128.981 30.14C129.146 29.438 129.215 28.567 129.189 27.527L130.619 27.592C130.619 27.93 130.611 28.255 130.593 28.567C130.585 28.879 130.559 29.1737 130.515 29.451C130.749 30.2223 131.161 30.8897 131.75 31.453C132.34 32.0163 133.055 32.4367 133.895 32.714C133.748 32.8527 133.583 33.052 133.401 33.312C133.219 33.572 133.081 33.793 132.985 33.975C131.659 33.455 130.667 32.5927 130.008 31.388C129.731 32.0207 129.341 32.5537 128.838 32.987C128.336 33.4117 127.69 33.754 126.901 34.014ZM126.966 28.333C126.888 28.151 126.78 27.9473 126.641 27.722C126.511 27.4967 126.368 27.306 126.212 27.15C127.044 26.9507 127.673 26.643 128.097 26.227C128.531 25.811 128.817 25.2693 128.955 24.602C129.103 23.926 129.163 23.107 129.137 22.145L130.58 22.197C130.58 22.5263 130.572 22.8427 130.554 23.146C130.537 23.4407 130.511 23.7223 130.476 23.991C130.927 25.5163 132.032 26.5347 133.791 27.046C133.644 27.202 133.488 27.4013 133.323 27.644C133.167 27.878 133.042 28.0903 132.946 28.281C132.288 28.0297 131.711 27.7177 131.217 27.345C130.732 26.9637 130.32 26.4827 129.982 25.902C129.714 26.5087 129.337 27.007 128.851 27.397C128.366 27.787 127.738 28.099 126.966 28.333ZM122.325 33.663V29.919H126.095V33.663H122.325ZM121.87 25.59V24.407H126.329V25.59H121.87ZM122.442 23.77V22.548H125.887V23.77H122.442ZM122.442 29.256V28.06H125.887V29.256H122.442ZM122.442 27.423V26.227H125.887V27.423H122.442ZM127.915 25.525C127.725 25.447 127.495 25.3733 127.226 25.304C126.958 25.226 126.732 25.1783 126.55 25.161C126.654 24.953 126.75 24.7017 126.836 24.407C126.932 24.1123 127.014 23.8177 127.083 23.523C127.153 23.2197 127.2 22.9683 127.226 22.769L128.539 22.951C128.522 23.1677 128.483 23.4363 128.422 23.757C128.362 24.0777 128.284 24.3983 128.188 24.719C128.102 25.031 128.011 25.2997 127.915 25.525ZM127.824 31.31C127.634 31.232 127.404 31.154 127.135 31.076C126.875 30.9893 126.654 30.933 126.472 30.907C126.585 30.699 126.689 30.4477 126.784 30.153C126.888 29.8583 126.975 29.5637 127.044 29.269C127.122 28.9743 127.179 28.7273 127.213 28.528L128.513 28.762C128.496 28.9787 128.448 29.2473 128.37 29.568C128.301 29.88 128.219 30.192 128.123 30.504C128.028 30.816 127.928 31.0847 127.824 31.31ZM132.179 25.421C132.041 25.3083 131.846 25.1827 131.594 25.044C131.343 24.9053 131.135 24.8057 130.97 24.745C131.118 24.563 131.261 24.3507 131.399 24.108C131.538 23.8567 131.664 23.6053 131.776 23.354C131.889 23.094 131.98 22.86 132.049 22.652L133.31 23.146C133.241 23.3627 133.141 23.6097 133.011 23.887C132.89 24.1643 132.756 24.4373 132.608 24.706C132.461 24.9747 132.318 25.213 132.179 25.421ZM132.205 31.05C132.067 30.9373 131.872 30.8117 131.62 30.673C131.369 30.5257 131.161 30.4217 130.996 30.361C131.213 30.0923 131.417 29.7673 131.607 29.386C131.798 29.0047 131.945 28.6623 132.049 28.359L133.31 28.853C133.198 29.1823 133.037 29.555 132.829 29.971C132.63 30.3783 132.422 30.738 132.205 31.05ZM123.651 32.467H124.769V31.115H123.651V32.467ZM59.7044 53.234C59.0284 53.1993 58.4868 53 58.0794 52.636C57.6721 52.272 57.4728 51.8213 57.4814 51.284C57.4901 50.9547 57.5984 50.6513 57.8064 50.374C58.0144 50.088 58.3091 49.8627 58.6904 49.698C59.0718 49.5247 59.5268 49.438 60.0554 49.438C60.3328 49.438 60.5928 49.451 60.8354 49.477C60.8268 49.0957 60.8138 48.6623 60.7964 48.177C60.7791 47.6917 60.7618 47.163 60.7444 46.591C60.2071 46.6257 59.6871 46.6473 59.1844 46.656C58.6818 46.656 58.2528 46.6473 57.8974 46.63L57.7934 45.044C58.1141 45.096 58.5344 45.1263 59.0544 45.135C59.5831 45.135 60.1378 45.122 60.7184 45.096C60.7098 44.7493 60.7011 44.3983 60.6924 44.043C60.6924 43.679 60.6924 43.3107 60.6924 42.938H62.2134C62.2048 43.2673 62.1961 43.6053 62.1874 43.952C62.1874 44.2987 62.1874 44.6497 62.1874 45.005C62.7074 44.9617 63.1798 44.914 63.6044 44.862C64.0291 44.8013 64.3498 44.7363 64.5664 44.667V46.227C64.3238 46.279 63.9944 46.3267 63.5784 46.37C63.1624 46.4133 62.7118 46.4567 62.2264 46.5C62.2438 47.1327 62.2654 47.7393 62.2914 48.32C62.3174 48.892 62.3391 49.3947 62.3564 49.828C62.8418 50.0013 63.3098 50.2223 63.7604 50.491C64.2111 50.7597 64.6531 51.0587 65.0864 51.388C64.9911 51.466 64.8784 51.5873 64.7484 51.752C64.6271 51.908 64.5144 52.0727 64.4104 52.246C64.3064 52.4107 64.2284 52.5493 64.1764 52.662C63.5958 52.1333 62.9978 51.7087 62.3824 51.388C62.3218 52.0727 62.0574 52.5623 61.5894 52.857C61.1301 53.143 60.5018 53.2687 59.7044 53.234ZM54.8814 53.39C54.8208 53.052 54.7731 52.6187 54.7384 52.09C54.7038 51.5527 54.6778 50.959 54.6604 50.309C54.6518 49.6503 54.6518 48.9743 54.6604 48.281C54.6691 47.579 54.6908 46.8943 54.7254 46.227C54.7601 45.5597 54.8034 44.9443 54.8554 44.381C54.9161 43.8177 54.9854 43.3497 55.0634 42.977L56.5454 43.328C56.4501 43.6313 56.3678 44.0387 56.2984 44.55C56.2378 45.0613 56.1901 45.6333 56.1554 46.266C56.1208 46.89 56.0991 47.5357 56.0904 48.203C56.0818 48.8703 56.0861 49.5203 56.1034 50.153C56.1294 50.777 56.1641 51.349 56.2074 51.869C56.2594 52.389 56.3201 52.8093 56.3894 53.13L54.8814 53.39ZM59.8214 51.908C60.1768 51.908 60.4411 51.8387 60.6144 51.7C60.7964 51.5527 60.8874 51.2927 60.8874 50.92V50.829C60.5928 50.7597 60.2851 50.7163 59.9644 50.699C59.6438 50.6903 59.3838 50.7423 59.1844 50.855C58.9938 50.9677 58.8941 51.115 58.8854 51.297C58.8768 51.479 58.9591 51.6263 59.1324 51.739C59.3058 51.8517 59.5354 51.908 59.8214 51.908ZM72.4054 52.714C71.8248 52.714 71.3048 52.6533 70.8454 52.532C70.3948 52.402 70.0048 52.1723 69.6754 51.843C69.3548 51.5137 69.0904 51.0543 68.8824 50.465L70.2604 49.711C70.3731 50.1617 70.6028 50.504 70.9494 50.738C71.2961 50.972 71.7814 51.089 72.4054 51.089C72.9601 51.089 73.5321 51.063 74.1214 51.011C74.7108 50.959 75.2654 50.8853 75.7854 50.79C76.3054 50.6947 76.7344 50.5863 77.0724 50.465C77.0724 50.6037 77.0811 50.7857 77.0984 51.011C77.1244 51.2363 77.1548 51.4573 77.1894 51.674C77.2328 51.8907 77.2718 52.0597 77.3064 52.181C76.9598 52.2937 76.5178 52.389 75.9804 52.467C75.4431 52.545 74.8624 52.6057 74.2384 52.649C73.6231 52.6923 73.0121 52.714 72.4054 52.714ZM70.3644 45.07L70.3514 43.497C70.6028 43.575 70.9148 43.6357 71.2874 43.679C71.6688 43.7223 72.0761 43.7483 72.5094 43.757C72.9514 43.7657 73.3934 43.7613 73.8354 43.744C74.2774 43.718 74.6848 43.6833 75.0574 43.64C75.4301 43.588 75.7378 43.523 75.9804 43.445V45.031C75.7638 45.1003 75.4691 45.1567 75.0964 45.2C74.7238 45.2433 74.3164 45.278 73.8744 45.304C73.4324 45.3213 72.9861 45.3257 72.5354 45.317C72.0848 45.3083 71.6688 45.2823 71.2874 45.239C70.9061 45.1957 70.5984 45.1393 70.3644 45.07ZM85.6394 53.754C85.6134 53.6067 85.5614 53.429 85.4834 53.221C85.4141 53.0217 85.3318 52.8267 85.2364 52.636C85.1411 52.4367 85.0414 52.2763 84.9374 52.155C86.3848 52.2677 87.5244 52.1593 88.3564 51.83C89.1884 51.492 89.6044 50.9677 89.6044 50.257C89.6044 49.8757 89.4441 49.5723 89.1234 49.347C88.8114 49.1217 88.4128 49.009 87.9274 49.009C87.3641 49.009 86.7921 49.1173 86.2114 49.334C85.6308 49.542 85.1064 49.8973 84.6384 50.4C84.6038 50.4433 84.5648 50.491 84.5214 50.543C84.4868 50.5863 84.4478 50.6297 84.4044 50.673L83.1434 49.776C83.5594 49.3687 83.9148 48.8183 84.2094 48.125C84.5041 47.4317 84.7338 46.7037 84.8984 45.941C83.6938 45.9843 82.6668 45.9843 81.8174 45.941L81.7134 44.407C82.0948 44.459 82.5888 44.4937 83.1954 44.511C83.8021 44.5197 84.4564 44.511 85.1584 44.485C85.2624 43.6617 85.3014 42.9163 85.2754 42.249H86.9134C86.9134 42.8817 86.8614 43.601 86.7574 44.407C87.3641 44.3637 87.9491 44.3117 88.5124 44.251C89.0758 44.1903 89.5871 44.1253 90.0464 44.056C90.5058 43.978 90.8784 43.8957 91.1644 43.809L91.0604 45.343C90.5491 45.4557 89.8861 45.5597 89.0714 45.655C88.2568 45.7417 87.4031 45.811 86.5104 45.863C86.4238 46.2617 86.3241 46.6603 86.2114 47.059C86.1074 47.4577 85.9818 47.8433 85.8344 48.216C86.2158 48.0167 86.5884 47.865 86.9524 47.761C87.3251 47.6483 87.6934 47.592 88.0574 47.592C88.6728 47.5833 89.2188 47.6873 89.6954 47.904C90.1808 48.1207 90.5621 48.4327 90.8394 48.84C91.1168 49.2387 91.2554 49.7197 91.2554 50.283C91.2554 51.427 90.7744 52.3067 89.8124 52.922C88.8504 53.5373 87.4594 53.8147 85.6394 53.754ZM99.4974 53.689C99.4714 53.559 99.4194 53.3943 99.3414 53.195C99.2721 52.9957 99.1854 52.7963 99.0814 52.597C98.9774 52.3977 98.8734 52.2417 98.7694 52.129C100.156 52.1637 101.213 51.999 101.941 51.635C102.678 51.271 103.046 50.7553 103.046 50.088C103.046 49.698 102.89 49.3947 102.578 49.178C102.266 48.9613 101.859 48.853 101.356 48.853C100.966 48.853 100.55 48.9137 100.108 49.035C99.6664 49.1477 99.2461 49.3383 98.8474 49.607C98.4574 49.867 98.1281 50.218 97.8594 50.66L96.4684 50.049C96.6418 49.7457 96.7891 49.3687 96.9104 48.918C97.0404 48.4587 97.1444 47.982 97.2224 47.488C97.3004 46.994 97.3568 46.526 97.3914 46.084C97.4261 45.642 97.4304 45.278 97.4044 44.992L99.0294 45.187C99.0381 45.6117 99.0034 46.1143 98.9254 46.695C98.8474 47.267 98.7261 47.8347 98.5614 48.398C99.0208 48.0947 99.5018 47.8607 100.004 47.696C100.507 47.5313 100.979 47.449 101.421 47.449C102.097 47.449 102.682 47.566 103.176 47.8C103.679 48.0253 104.069 48.3417 104.346 48.749C104.624 49.1477 104.762 49.607 104.762 50.127C104.762 50.7857 104.572 51.3793 104.19 51.908C103.818 52.428 103.241 52.844 102.461 53.156C101.69 53.468 100.702 53.6457 99.4974 53.689ZM101.655 45.356C101.439 45.1827 101.179 45.0093 100.875 44.836C100.581 44.6627 100.269 44.498 99.9394 44.342C99.6101 44.186 99.2851 44.0517 98.9644 43.939C98.6524 43.8177 98.3751 43.7353 98.1324 43.692L98.9124 42.34C99.1378 42.4007 99.4064 42.496 99.7184 42.626C100.03 42.7473 100.355 42.886 100.693 43.042C101.04 43.198 101.365 43.354 101.668 43.51C101.98 43.666 102.236 43.809 102.435 43.939L101.655 45.356Z" fill="white"/>
</svg>
