<svg width="129" height="65" viewBox="0 0 129 65" fill="none" xmlns="http://www.w3.org/2000/svg">
<path d="M96.236 64.7147C90.3948 64.7147 84.6758 63.1193 79.6991 60.1048C75.0494 57.2866 69.7173 55.7993 64.2798 55.7993C58.8424 55.7993 53.5102 57.2895 48.8606 60.1048C43.8838 63.1222 38.1649 64.7147 32.3237 64.7147C23.7353 64.7147 15.6617 61.3448 9.59291 55.2277C3.52417 49.1106 0.216794 41.0113 0.282202 32.4201C0.34761 24.0251 3.74884 16.0652 9.86592 10.0107C15.9773 3.95903 23.96 0.628906 32.3464 0.628906C32.537 0.628906 32.7275 0.628905 32.918 0.634593C38.509 0.736971 43.9891 2.30961 48.7667 5.18188C53.459 8.00297 58.8225 9.49314 64.2798 9.49314C69.7372 9.49314 75.1035 8.00297 79.7958 5.18188C84.5734 2.30961 90.0563 0.736971 95.6445 0.634593C95.835 0.631749 96.0255 0.628906 96.2161 0.628906C104.603 0.628906 112.585 3.96188 118.697 10.0136C124.814 16.0681 128.218 24.028 128.28 32.423C128.346 41.0142 125.038 49.1134 118.97 55.2305C112.898 61.3476 104.824 64.7175 96.2388 64.7175L96.236 64.7147Z" fill="#FAB4BF"/>
</svg>
