<svg width="81" height="95" viewBox="0 0 81 95" fill="none" xmlns="http://www.w3.org/2000/svg">
<path d="M40.5391 94.0791C18.483 94.0791 0.539062 79.0959 0.539062 60.6787C0.539062 42.2616 13.2119 28.8599 24.3918 17.1056C29.0884 12.1686 33.6586 7.36312 37.1507 2.3957C38.669 0.234635 42.4066 0.234635 43.9274 2.3957C47.4196 7.36312 51.9897 12.1686 56.6863 17.1056C67.8687 28.8625 80.5391 42.1857 80.5391 60.6787C80.5391 79.1718 62.5951 94.0791 40.5391 94.0791Z" fill="#88C8F0"/>
<path d="M49.6646 27.5224C47.2885 28.3397 44.6112 27.4211 43.2245 25.3259C43.2119 25.3082 43.2017 25.2905 43.1891 25.2727C42.7716 24.63 41.8479 24.6148 41.4355 25.2601C40.7522 26.328 39.697 27.1782 38.3558 27.5856C35.8178 28.3574 33.0266 27.1732 31.812 24.8147C30.2507 21.7832 31.7335 18.0988 34.9523 16.9904C37.3285 16.1731 40.0032 17.0942 41.3924 19.1869C41.4051 19.2046 41.4152 19.2223 41.4279 19.24C41.8454 19.8828 42.769 19.898 43.1815 19.2527C43.8647 18.1848 44.92 17.3346 46.2611 16.9272C48.7992 16.1554 51.5903 17.3396 52.805 19.6981C54.3663 22.7296 52.8834 26.414 49.6646 27.5224Z" fill="white"/>
<path d="M35.4443 27.7487C33.7351 27.7487 32.3495 26.3631 32.3495 24.6539C32.3495 22.9447 33.7351 21.5591 35.4443 21.5591C37.1535 21.5591 38.5391 22.9447 38.5391 24.6539C38.5391 26.3631 37.1535 27.7487 35.4443 27.7487Z" fill="#231815"/>
<path d="M46.5536 27.7487C44.8444 27.7487 43.4588 26.3631 43.4588 24.6539C43.4588 22.9447 44.8444 21.5591 46.5536 21.5591C48.2629 21.5591 49.6484 22.9447 49.6484 24.6539C49.6484 26.3631 48.2629 27.7487 46.5536 27.7487Z" fill="#231815"/>
</svg>
