<svg width="119" height="60" viewBox="0 0 119 60" fill="none" xmlns="http://www.w3.org/2000/svg">
<path d="M89.2079 59.5793C83.7774 59.5793 78.4606 58.0961 73.8338 55.2935C69.5111 52.6735 64.5538 51.2907 59.4987 51.2907C54.4436 51.2907 49.4863 52.6761 45.1636 55.2935C40.5368 58.0987 35.22 59.5793 29.7894 59.5793C21.8049 59.5793 14.299 56.4463 8.65693 50.7593C3.0149 45.0723 -0.0599242 37.5426 0.00088497 29.5554C0.0616941 21.7507 3.22377 14.3505 8.91075 8.72166C14.5924 3.09549 22.0138 -0.000488281 29.8106 -0.000488281C29.9877 -0.000488281 30.1649 -0.000489169 30.342 0.00479858C35.5399 0.0999781 40.6346 1.56204 45.0763 4.23236C49.4387 6.85508 54.4251 8.24047 59.4987 8.24047C64.5723 8.24047 69.5613 6.85508 73.9237 4.23236C78.3654 1.56204 83.4628 0.0999781 88.658 0.00479858C88.8351 0.00215471 89.0123 -0.000488281 89.1894 -0.000488281C96.9862 -0.000488281 104.408 3.09813 110.089 8.72431C115.776 14.3531 118.941 21.7533 118.999 29.5581C119.06 37.5452 115.985 45.075 110.343 50.7619C104.698 56.4489 97.1925 59.5819 89.2106 59.5819L89.2079 59.5793Z" fill="#FAB4BF"/>
<path d="M82.6993 16.3199C85.1818 17.1738 87.979 16.2141 89.4278 14.025C89.441 14.0065 89.4516 13.988 89.4648 13.9695C89.9011 13.298 90.866 13.2821 91.297 13.9563C92.0108 15.072 93.1133 15.9603 94.5145 16.386C97.1663 17.1923 100.082 15.955 101.351 13.491C102.983 10.3237 101.433 6.47427 98.0705 5.31628C95.5879 4.46232 92.7934 5.42467 91.3419 7.61112C91.3287 7.62962 91.3181 7.64813 91.3049 7.66664C90.8687 8.33817 89.9037 8.35403 89.4728 7.67986C88.7589 6.56416 87.6565 5.67584 86.2552 5.25018C83.6035 4.44382 80.6873 5.68113 79.4183 8.14517C77.7871 11.3125 79.3363 15.1619 82.6993 16.3199Z" fill="white"/>
<path d="M95.9873 11.4712C97.7731 11.4712 99.2207 10.0235 99.2207 8.23779C99.2207 6.45204 97.7731 5.00439 95.9873 5.00439C94.2015 5.00439 92.7539 6.45204 92.7539 8.23779C92.7539 10.0235 94.2015 11.4712 95.9873 11.4712Z" fill="#231815"/>
<path d="M84.3818 11.4712C86.1676 11.4712 87.6152 10.0235 87.6152 8.23779C87.6152 6.45204 86.1676 5.00439 84.3818 5.00439C82.5961 5.00439 81.1484 6.45204 81.1484 8.23779C81.1484 10.0235 82.5961 11.4712 84.3818 11.4712Z" fill="#231815"/>
</svg>
