<svg width="87" height="29" viewBox="0 0 87 29" fill="none" xmlns="http://www.w3.org/2000/svg">
<path d="M30.5486 19.9208H39.9084C41.5914 19.9208 42.9306 18.5013 42.826 16.8221C42.826 16.796 42.8223 16.7698 42.8204 16.7437C42.7345 15.4176 42.6635 14.7582 42.2563 13.4583C41.1188 10.0029 38.1097 7.92969 33.7594 7.92969C29.4092 7.92969 26.4412 9.96182 25.3036 13.4994C24.8964 14.719 24.6536 16.1423 24.6536 18.2155C24.6536 20.2887 24.9375 21.6709 25.3447 22.8905C26.4823 26.4262 29.5717 28.4994 34.0433 28.4994C39.3742 28.4303 41.3728 26.4113 41.3728 24.1699C41.3728 23.6096 41.2477 23.1221 41.1748 22.8868C41.1524 22.8121 41.0571 22.7803 40.9843 22.8214C39.8692 23.4583 37.9621 23.8767 34.9866 23.8767C34.6747 23.8767 34.3329 23.8655 34.0452 23.8449V23.8412C32.3025 23.688 31.0249 22.8083 30.5467 21.2637C30.4253 20.9387 30.3431 20.5726 30.302 20.1654C30.302 20.0029 30.3842 19.9208 30.5467 19.9208H30.5486ZM30.5094 14.4333C30.9558 13.0922 32.1755 12.2797 33.8024 12.2797C35.4293 12.2797 36.6471 13.0922 37.0954 14.4333C37.2168 14.8386 37.299 15.285 37.299 15.8939C37.299 16.0302 37.1907 16.1404 37.0543 16.1404H30.5504C30.4141 16.1404 30.3058 16.0283 30.3058 15.8939C30.3058 15.285 30.3879 14.8386 30.5094 14.4333Z" fill="black"/>
<path d="M68.7168 22.9888C68.2704 21.5711 68.0687 20.1927 68.0687 18.2484C68.0687 16.304 68.2704 14.9256 68.7168 13.508C69.8506 9.94239 73.0932 7.99805 77.2268 7.99805C81.3603 7.99805 84.6011 9.94239 85.7367 13.508C86.1831 14.9256 86.3849 16.304 86.3849 18.2484C86.3849 20.1927 86.1831 21.5711 85.7367 22.9888C84.6029 26.5543 81.3603 28.4987 77.2268 28.4987C73.0932 28.4987 69.8525 26.5543 68.7168 22.9888ZM80.2639 21.6103C80.5478 20.7194 80.6281 19.9088 80.6281 18.2465C80.6281 16.5842 80.5478 15.7754 80.2639 14.8845C79.8175 13.5061 78.7248 12.7777 77.2249 12.7777C75.725 12.7777 74.6323 13.5061 74.1859 14.8845C73.902 15.7754 73.8217 16.586 73.8217 18.2465C73.8217 19.9069 73.902 20.7175 74.1859 21.6103C74.6323 22.9888 75.725 23.7172 77.2249 23.7172C78.7248 23.7172 79.8175 22.9888 80.2639 21.6103Z" fill="black"/>
<path d="M21.4149 20.0294C21.4149 16.7477 19.5507 14.4784 17.7277 13.7892V13.7089C19.5507 12.6965 20.9292 10.8325 20.9292 7.83286C20.9274 3.45854 18.133 0.5 12.1354 0.5H0.132504C0.0503185 0.5 -0.0113208 0.574711 0.00175423 0.655025C0.242708 2.05585 0.506076 3.43613 0.68539 5.13206C0.797461 6.18362 0.991718 8.47163 0.991718 10.4832V18.0664C0.991718 20.0779 0.797461 22.366 0.68539 23.4175C0.506076 25.1153 0.24084 26.4956 0.00175423 27.8946C-0.0113208 27.9749 0.0503185 28.0496 0.132504 28.0496H1.25695C1.28497 28.0496 1.31299 28.0458 1.34101 28.044C1.35969 28.0458 1.37836 28.0496 1.39704 28.0496H11.8514C11.9243 28.0496 11.9971 28.0477 12.07 28.0458C12.0924 28.0458 12.1167 28.0477 12.1354 28.0496L12.1316 28.0458C17.9201 27.9655 21.4149 25.3712 21.4149 20.0275V20.0294ZM6.94831 5.56539C6.94831 5.43091 7.05665 5.32258 7.19113 5.32258H11.405C13.6745 5.32258 15.0118 6.4974 15.0118 8.52393C15.0118 10.5505 13.6745 11.7645 11.405 11.7645H7.19113C7.05665 11.7645 6.94831 11.6562 6.94831 11.5217V5.56539ZM11.73 23.2307H7.19113C7.05665 23.2307 6.94831 23.1224 6.94831 22.9879V16.5852C6.94831 16.4507 7.05665 16.3424 7.19113 16.3424H11.73C14.162 16.3424 15.4583 17.6797 15.4583 19.7866C15.4583 21.8934 14.162 23.2307 11.73 23.2307Z" fill="black"/>
<path d="M64.4845 12.5826C63.4721 9.46342 61.1205 7.88142 57.8387 7.88142C55.2461 7.88142 53.5837 8.81344 52.6927 10.1508H52.6516V3.14663C52.6516 1.68603 51.4674 0.5 50.0049 0.5H46.1328C46.0506 0.5 45.989 0.574711 46.0021 0.655025C46.243 2.05585 46.5064 3.43613 46.6857 5.13207C46.7679 5.9184 46.9547 9.18699 46.979 10.4683V18.0645C46.9547 19.3458 46.7679 22.6162 46.6857 23.4007C46.5064 25.1041 46.2393 26.4956 45.9983 27.8946C45.9853 27.9749 46.0469 28.0496 46.1291 28.0496H47.8905C48.1202 28.0421 48.3873 28.0402 48.6656 28.0421C48.7105 28.0458 48.7553 28.0496 48.802 28.0496H50.9369C51.8839 28.0496 52.6516 27.2819 52.6516 26.335V26.1127H52.6927C53.5837 27.45 55.2461 28.382 57.8387 28.382C61.1205 28.382 63.4703 26.7608 64.4845 23.6827C64.9702 22.1437 65.1737 20.6439 65.1737 18.1317C65.1737 15.6196 64.972 14.1198 64.4845 12.5807V12.5826ZM59.0547 21.4956C58.6082 22.874 57.5548 23.6024 56.0156 23.6024C54.4765 23.6024 53.4623 22.874 53.0177 21.4956C52.7749 20.7261 52.6535 19.8744 52.6535 18.1317C52.6535 16.3891 52.7749 15.5393 53.0177 14.7698C53.4642 13.3521 54.5176 12.6629 56.0156 12.6629C57.5137 12.6629 58.6082 13.3521 59.0547 14.7698C59.2975 15.5393 59.4189 16.391 59.4189 18.1317C59.4189 19.8725 59.2975 20.7242 59.0547 21.4956Z" fill="black"/>
</svg>
