<svg width="200" height="180" viewBox="0 0 200 180" fill="none" xmlns="http://www.w3.org/2000/svg">
<path d="M53.7544 6.37092C67.589 1.98997 81.0276 0 100 0C118.972 0 132.411 1.98997 146.246 6.37092C181.028 17.5188 200 49.3584 200 89.9599C200 130.561 181.028 162.406 146.246 173.549C132.411 177.93 118.972 179.92 100 179.92C81.0276 179.92 67.589 177.93 53.7544 173.549C18.9674 162.406 0 130.561 0 89.9599C0 49.3584 18.9724 17.5188 53.7544 6.37092Z" fill="white"/>
<path d="M83.9056 97.0328H95.7903C97.9256 97.0328 99.6249 95.2282 99.4945 93.0979C99.4945 93.0628 99.4945 93.0278 99.4895 92.9977C99.3792 91.3135 99.289 90.4764 98.7727 88.8272C97.3291 84.4413 93.5046 81.8047 87.9858 81.8047C82.467 81.8047 78.6925 84.3861 77.2489 88.8774C76.7326 90.4262 76.4219 92.2358 76.4219 94.8673C76.4219 97.4989 76.7828 99.2533 77.2991 100.802C78.7427 105.293 82.6675 107.925 88.3467 107.925C95.1136 107.835 97.6549 105.273 97.6549 102.426C97.6549 101.714 97.4945 101.093 97.4043 100.797C97.3742 100.702 97.254 100.662 97.1637 100.712C95.7452 101.519 93.3241 102.05 89.5497 102.05C89.1537 102.05 88.7176 102.035 88.3567 102.01C86.1462 101.81 84.5221 100.692 83.9156 98.732C83.7602 98.316 83.66 97.8548 83.6048 97.3385C83.6048 97.133 83.7101 97.0277 83.9156 97.0277L83.9056 97.0328ZM83.8555 90.0653C84.4219 88.3611 85.9707 87.3335 88.0359 87.3335C90.1011 87.3335 91.6499 88.3661 92.2164 90.0653C92.3718 90.5816 92.472 91.148 92.472 91.92C92.472 92.0904 92.3366 92.2358 92.1612 92.2358H83.9006C83.7301 92.2358 83.5898 92.0904 83.5898 91.92C83.5898 91.148 83.69 90.5816 83.8454 90.0653H83.8555Z" fill="black"/>
<path d="M132.361 100.928C131.795 99.1237 131.539 97.3794 131.539 94.9082C131.539 92.437 131.795 90.6876 132.361 88.8881C133.8 84.3618 137.92 81.8906 143.163 81.8906C148.406 81.8906 152.527 84.3618 153.965 88.8881C154.532 90.6926 154.787 92.437 154.787 94.9082C154.787 97.3794 154.532 99.1287 153.965 100.928C152.527 105.455 148.406 107.926 143.163 107.926C137.92 107.926 133.8 105.455 132.361 100.928ZM147.028 99.1788C147.389 98.046 147.489 97.0185 147.489 94.9082C147.489 92.7979 147.389 91.7703 147.028 90.6375C146.461 88.8881 145.073 87.9608 143.168 87.9608C141.263 87.9608 139.875 88.8881 139.308 90.6375C138.948 91.7703 138.847 92.7979 138.847 94.9082C138.847 97.0185 138.948 98.046 139.308 99.1788C139.875 100.928 141.263 101.856 143.168 101.856C145.073 101.856 146.461 100.928 147.028 99.1788Z" fill="black"/>
<path d="M126.991 87.7094C125.703 83.7445 122.721 81.7445 118.555 81.7445C115.262 81.7445 113.152 82.9275 112.019 84.6267H111.969V75.7345C111.969 73.8799 110.465 72.3711 108.605 72.3711H103.688C103.583 72.3711 103.508 72.4663 103.523 72.5666C103.828 74.341 104.164 76.0954 104.39 78.2508C104.495 79.2483 104.731 83.3987 104.761 85.0277V94.6718C104.731 96.3009 104.49 100.451 104.39 101.449C104.159 103.609 103.823 105.379 103.518 107.153C103.503 107.253 103.578 107.349 103.683 107.349H105.919C106.209 107.339 106.55 107.339 106.901 107.339C106.956 107.344 107.016 107.349 107.076 107.349H109.788C110.991 107.349 111.969 106.376 111.969 105.168V104.887H112.019C113.152 106.587 115.262 107.77 118.555 107.77C122.726 107.77 125.708 105.709 126.991 101.8C127.608 99.8448 127.868 97.94 127.868 94.7521C127.868 91.5641 127.613 89.6593 126.991 87.7044V87.7094ZM120.099 99.0277C119.533 100.777 118.194 101.704 116.239 101.704C114.284 101.704 112.996 100.777 112.435 99.0277C112.129 98.0503 111.974 96.9676 111.974 94.757C111.974 92.5465 112.129 91.4638 112.435 90.4864C113.001 88.6819 114.34 87.8097 116.239 87.8097C118.139 87.8097 119.533 88.6869 120.099 90.4864C120.405 91.4638 120.56 92.5465 120.56 94.757C120.56 96.9676 120.405 98.0503 120.099 99.0277Z" fill="black"/>
<path d="M60.5206 72.3711C68.1347 72.3711 71.6836 76.1255 71.6886 81.6844C71.6886 85.4939 69.9392 87.8598 67.6234 89.148V89.2483C69.9392 90.1255 72.3051 93.0027 72.3051 97.1731C72.3051 103.96 67.869 107.253 60.5156 107.354H60.5206C60.5206 107.354 60.4655 107.354 60.4354 107.354C60.3452 107.354 60.255 107.354 60.1598 107.354H46.8866C46.8615 107.354 46.8365 107.349 46.8164 107.349C46.7813 107.349 46.7462 107.354 46.7111 107.354H45.2826C45.1823 107.354 45.1021 107.258 45.1172 107.158C45.4229 105.384 45.7587 103.629 45.9843 101.474C46.1247 100.136 46.3703 97.2332 46.3703 94.6769V85.0478C46.3703 82.4914 46.1247 79.5891 45.9843 78.2508C45.7587 76.0954 45.4179 74.341 45.1172 72.5666C45.1021 72.4613 45.1773 72.3711 45.2826 72.3711H60.5206ZM54.2449 92.4914C54.0745 92.4914 53.9392 92.6267 53.9392 92.7972V100.927C53.9392 101.098 54.0745 101.233 54.2449 101.233H60.0094C63.0971 101.233 64.7412 99.539 64.7412 96.8623C64.7412 94.1856 63.0971 92.4864 60.0094 92.4864H54.2449V92.4914ZM54.24 78.4964C54.0695 78.4964 53.9342 78.6317 53.9342 78.8022V86.3711C53.9342 86.5415 54.0695 86.6769 54.24 86.6769H59.5933C62.4755 86.6769 64.1748 85.133 64.1748 82.5616C64.1748 79.9901 62.4755 78.4964 59.5933 78.4964H54.24Z" fill="black"/>
</svg>
