<svg width="189" height="85" viewBox="0 0 189 85" fill="none" xmlns="http://www.w3.org/2000/svg">
<path d="M1.55032 72.0724C1.55032 71.9622 1.62368 71.8887 1.73378 71.8887H2.91742C3.06422 71.8887 3.15598 71.9438 3.21103 72.0724L6.89942 80.4043H6.95447L10.5695 72.0724C10.6245 71.9438 10.7163 71.8887 10.8631 71.8887H12.0467C12.1568 71.8887 12.2302 71.9622 12.2302 72.0724V84.0787C12.2302 84.189 12.1568 84.2625 12.0467 84.2625H10.8998C10.7897 84.2625 10.7163 84.189 10.7163 84.0787V75.4713H10.6613L7.58756 82.2782C7.51415 82.4436 7.42242 82.4987 7.25726 82.4987H6.53244C6.34894 82.4987 6.25718 82.4436 6.18378 82.2782L3.11006 75.4713H3.05501V84.0787C3.05501 84.189 2.98165 84.2625 2.87155 84.2625H1.72465C1.61455 84.2625 1.54114 84.189 1.54114 84.0787V72.0724H1.55032Z" fill="black"/>
<path d="M20.5009 84.2797C20.3908 84.2797 20.3174 84.2062 20.3174 84.096V83.3335H20.2991C19.8953 83.9858 19.0421 84.4818 17.7208 84.4818C16.0693 84.4818 14.7939 83.6275 14.7939 81.8637C14.7939 80.1 16.0693 79.1722 18.1887 79.1722H20.1706C20.244 79.1722 20.2807 79.1355 20.2807 79.062V78.4281C20.2807 77.2247 19.8127 76.7195 18.1887 76.7195C17.207 76.7195 16.5922 76.9767 16.0784 77.335C15.9867 77.4085 15.8766 77.4085 15.8216 77.3166L15.3353 76.4807C15.2802 76.3704 15.2986 76.2969 15.372 76.2234C16.0234 75.7182 17.0419 75.3691 18.3356 75.3691C20.8037 75.3691 21.7487 76.1867 21.7487 78.3363V84.1052C21.7487 84.2154 21.6753 84.2889 21.5652 84.2889H20.4917L20.5009 84.2797ZM20.2807 81.4596V80.495C20.2807 80.4215 20.244 80.3848 20.1706 80.3848H18.4273C16.9226 80.3848 16.262 80.8257 16.262 81.7995C16.262 82.6905 16.9134 83.1682 18.0786 83.1682C19.4457 83.1682 20.2807 82.5343 20.2807 81.4596Z" fill="black"/>
<path d="M30.4622 84.2625C30.3338 84.2625 30.2421 84.2074 30.1687 84.0787L27.7006 80.0184L26.1958 81.7822V84.0787C26.1958 84.189 26.1224 84.2625 26.0123 84.2625H24.847C24.7369 84.2625 24.6636 84.189 24.6636 84.0787V72.0724C24.6636 71.9622 24.7369 71.8887 24.847 71.8887H26.0123C26.1224 71.8887 26.1958 71.9622 26.1958 72.0724V79.7704L29.6273 75.7101C29.7374 75.5815 29.8292 75.5448 29.9576 75.5448H31.3064C31.4165 75.5448 31.4532 75.6366 31.3798 75.7285L28.7098 78.8426L31.9303 84.0787C31.9854 84.1522 31.9303 84.2625 31.8202 84.2625H30.4714H30.4622Z" fill="black"/>
<path d="M33.4816 82.1093C33.2981 81.5489 33.188 80.9059 33.188 79.9046C33.188 78.9033 33.2797 78.2327 33.4632 77.6999C33.9587 76.1934 35.2248 75.3574 36.8764 75.3574C38.5279 75.3574 39.8033 76.2117 40.2896 77.6999C40.4731 78.2602 40.5648 78.8665 40.5648 80.1894C40.5648 80.2996 40.4914 80.3731 40.363 80.3731H34.8579C34.7845 80.3731 34.7478 80.4098 34.7478 80.4833C34.7478 80.9518 34.8028 81.2457 34.8946 81.5397C35.2432 82.541 36.0231 83.0462 37.0966 83.0462C38.1701 83.0462 38.8583 82.6237 39.3354 82.0817C39.4271 81.9898 39.5189 81.9715 39.6106 82.045L40.3538 82.7156C40.4456 82.789 40.4456 82.8809 40.3722 82.9728C39.684 83.8455 38.5004 84.4609 36.9773 84.4609C35.2157 84.4609 33.9587 83.6066 33.4908 82.1001L33.4816 82.1093ZM38.8949 79.1605C38.9683 79.1605 39.005 79.1237 39.005 79.0503C39.005 78.6461 38.9684 78.3429 38.8766 78.0673C38.583 77.1946 37.8581 76.6986 36.8764 76.6986C35.8946 76.6986 35.1698 77.1946 34.8762 78.0673C34.7844 78.3429 34.7478 78.6461 34.7478 79.0503C34.7478 79.1237 34.7845 79.1605 34.8579 79.1605H38.8949Z" fill="black"/>
<path d="M49.7219 84.2625C49.6118 84.2625 49.5384 84.189 49.5384 84.0787V79.2009L45.8866 72.0908C45.8499 71.9805 45.905 71.8887 46.0335 71.8887H47.3272C47.4556 71.8887 47.529 71.9438 47.6024 72.0724L50.3641 77.3636H50.4009L53.1443 72.0724C53.1993 71.9438 53.2727 71.8887 53.4011 71.8887H54.6581C54.8049 71.8887 54.8417 71.9805 54.805 72.0908L51.1533 79.2009V84.0787C51.1533 84.189 51.0798 84.2625 50.9697 84.2625H49.7311H49.7219Z" fill="black"/>
<path d="M55.3219 82.1276C55.1201 81.5305 55.0283 80.9242 55.0283 79.9046C55.0283 78.8849 55.1201 78.3062 55.3219 77.6999C55.799 76.2117 57.0652 75.3574 58.7534 75.3574C60.4417 75.3574 61.717 76.2117 62.185 77.6999C62.3868 78.297 62.4786 78.9033 62.4786 79.9046C62.4786 80.9059 62.3868 81.5213 62.185 82.1276C61.7078 83.5974 60.4417 84.4701 58.7534 84.4701C57.0652 84.4701 55.7899 83.5974 55.3219 82.1276ZM60.7169 81.6959C60.8638 81.2274 60.9188 80.7497 60.9188 79.9138C60.9188 79.0778 60.8638 78.6185 60.7169 78.15C60.4233 77.2773 59.7168 76.7813 58.7534 76.7813C57.79 76.7813 57.0835 77.2773 56.7899 78.15C56.6431 78.6277 56.5881 79.0778 56.5881 79.9138C56.5881 80.7497 56.6431 81.2274 56.7899 81.6959C57.0835 82.5686 57.79 83.0646 58.7534 83.0646C59.7168 83.0646 60.4233 82.5778 60.7169 81.6959Z" fill="black"/>
<path d="M70.394 84.2534C70.2839 84.2534 70.2104 84.18 70.2104 84.0697V83.2521H70.1921C69.7334 83.9778 68.9351 84.4555 67.8157 84.4555C65.9073 84.4555 64.7971 83.1419 64.7971 81.1669V75.7287C64.7971 75.6184 64.8705 75.5449 64.9806 75.5449H66.1458C66.2559 75.5449 66.3294 75.6184 66.3294 75.7287V80.8086C66.3294 82.2233 66.9624 83.05 68.2561 83.05C69.4397 83.05 70.2196 82.2141 70.2196 80.9005V75.7379C70.2196 75.6276 70.293 75.5541 70.4031 75.5541H71.5684C71.6785 75.5541 71.7519 75.6276 71.7519 75.7379V84.0881C71.7519 84.1983 71.6785 84.2718 71.5684 84.2718H70.4031L70.394 84.2534Z" fill="black"/>
<path d="M74.9022 84.2772C74.7921 84.2772 74.7188 84.2037 74.7188 84.0935V75.7432C74.7188 75.633 74.7921 75.5595 74.9022 75.5595H76.0675C76.1776 75.5595 76.251 75.633 76.251 75.7432V76.6343H76.2694C76.6547 75.8902 77.4162 75.3574 78.5815 75.3574C79.2696 75.3574 79.921 75.6146 80.3615 76.0096C80.4532 76.1015 80.4716 76.175 80.3982 76.2668L79.7284 77.1579C79.655 77.2498 79.5632 77.2681 79.4715 77.1947C79.0678 76.9374 78.6365 76.7721 78.1319 76.7721C76.8015 76.7721 76.2602 77.8101 76.2602 79.3167V84.0843C76.2602 84.1945 76.1868 84.268 76.0767 84.268H74.9114L74.9022 84.2772Z" fill="black"/>
<path d="M86.5619 72.0724C86.5619 71.9622 86.6353 71.8887 86.7454 71.8887H91.122C93.6085 71.8887 94.8471 73.1656 94.8471 75.1406C94.8471 76.5736 94.1589 77.4555 93.1955 77.8321V77.8689C94.0305 78.1077 95.0673 79.0723 95.0673 80.7258C95.0673 83.0407 93.6176 84.2533 91.0302 84.2533H86.7454C86.6353 84.2533 86.5619 84.1798 86.5619 84.0696V72.0632V72.0724ZM91.0944 77.235C92.4615 77.235 93.2598 76.4542 93.2598 75.3059C93.2598 74.1577 92.4615 73.3585 91.0944 73.3585H88.296C88.2226 73.3585 88.1859 73.3952 88.1859 73.4687V77.1248C88.1859 77.1983 88.2226 77.235 88.296 77.235H91.0944ZM88.2868 82.7835H91.177C92.6451 82.7835 93.4525 81.9843 93.4525 80.7442C93.4525 79.504 92.6542 78.7048 91.177 78.7048H88.2868C88.2134 78.7048 88.1767 78.7416 88.1767 78.8151V82.6732C88.1767 82.7467 88.2134 82.7835 88.2868 82.7835Z" fill="black"/>
<path d="M97.2669 82.1276C97.065 81.5305 96.9733 80.9242 96.9733 79.9046C96.9733 78.8849 97.065 78.3062 97.2669 77.6999C97.744 76.2117 99.0102 75.3574 100.698 75.3574C102.387 75.3574 103.662 76.2117 104.13 77.6999C104.332 78.297 104.424 78.9033 104.424 79.9046C104.424 80.9059 104.332 81.5213 104.13 82.1276C103.653 83.5974 102.387 84.4701 100.698 84.4701C99.0102 84.4701 97.7348 83.5974 97.2669 82.1276ZM102.671 81.6959C102.818 81.2274 102.873 80.7497 102.873 79.9138C102.873 79.0778 102.818 78.6185 102.671 78.15C102.377 77.2773 101.671 76.7813 100.708 76.7813C99.7442 76.7813 99.0377 77.2773 98.7441 78.15C98.5973 78.6277 98.5422 79.0778 98.5422 79.9138C98.5422 80.7497 98.5973 81.2274 98.7441 81.6959C99.0377 82.5686 99.7442 83.0646 100.708 83.0646C101.671 83.0646 102.377 82.5778 102.671 81.6959Z" fill="black"/>
<path d="M114.308 84.2489C114.198 84.2489 114.125 84.1754 114.088 84.0652L112.125 77.8278H112.088L110.106 84.0652C110.07 84.1754 109.996 84.2489 109.886 84.2489H108.831C108.721 84.2489 108.647 84.1754 108.611 84.0652L105.886 75.715C105.849 75.6047 105.904 75.5312 106.014 75.5312H107.253C107.381 75.5312 107.436 75.568 107.491 75.715L109.418 82.0075H109.455L111.418 75.715C111.455 75.5864 111.528 75.5312 111.638 75.5312H112.584C112.694 75.5312 112.785 75.5864 112.822 75.715L114.804 82.0075H114.841L116.712 75.715C116.749 75.568 116.822 75.5312 116.951 75.5312H118.19C118.3 75.5312 118.355 75.6047 118.318 75.715L115.575 84.0652C115.538 84.1754 115.483 84.2489 115.354 84.2489H114.318H114.308Z" fill="black"/>
<path d="M120.112 82.1093C119.929 81.5489 119.819 80.9059 119.819 79.9046C119.819 78.9033 119.91 78.2327 120.094 77.6999C120.589 76.1934 121.856 75.3574 123.507 75.3574C125.159 75.3574 126.434 76.2117 126.92 77.6999C127.104 78.2602 127.195 78.8665 127.195 80.1894C127.195 80.2996 127.122 80.3731 126.994 80.3731H121.488C121.415 80.3731 121.378 80.4098 121.378 80.4833C121.378 80.9518 121.433 81.2457 121.525 81.5397C121.874 82.541 122.654 83.0462 123.727 83.0462C124.801 83.0462 125.489 82.6237 125.966 82.0817C126.058 81.9898 126.149 81.9715 126.241 82.045L126.984 82.7156C127.076 82.789 127.076 82.8809 127.003 82.9728C126.315 83.8455 125.131 84.4609 123.608 84.4609C121.846 84.4609 120.589 83.6066 120.121 82.1001L120.112 82.1093ZM125.526 79.1605C125.599 79.1605 125.636 79.1237 125.636 79.0503C125.636 78.6461 125.599 78.3429 125.507 78.0673C125.214 77.1946 124.489 76.6986 123.507 76.6986C122.525 76.6986 121.8 77.1946 121.507 78.0673C121.415 78.3429 121.378 78.6461 121.378 79.0503C121.378 79.1237 121.415 79.1605 121.488 79.1605H125.526Z" fill="black"/>
<path d="M131.754 84.3543C130.231 84.3543 129.625 83.6286 129.625 82.0578V72.0724C129.625 71.9622 129.698 71.8887 129.809 71.8887H130.974C131.084 71.8887 131.157 71.9622 131.157 72.0724V81.9659C131.157 82.6916 131.433 82.9305 132.029 82.9305H132.378C132.488 82.9305 132.561 83.0039 132.561 83.1142V84.1706C132.561 84.2808 132.488 84.3543 132.378 84.3543H131.763H131.754Z" fill="black"/>
<path d="M139.08 72.0724C139.08 71.9622 139.154 71.8887 139.264 71.8887H143.64C146.127 71.8887 147.366 73.1656 147.366 75.1406C147.366 76.5736 146.677 77.4555 145.714 77.8321V77.8689C146.549 78.1077 147.586 79.0723 147.586 80.7258C147.586 83.0407 146.136 84.2533 143.549 84.2533H139.264C139.154 84.2533 139.08 84.1798 139.08 84.0696V72.0632V72.0724ZM143.604 77.235C144.971 77.235 145.769 76.4542 145.769 75.3059C145.769 74.1577 144.971 73.3585 143.604 73.3585H140.805C140.732 73.3585 140.695 73.3952 140.695 73.4687V77.1248C140.695 77.1983 140.732 77.235 140.805 77.235H143.604ZM140.805 82.7835H143.696C145.164 82.7835 145.971 81.9843 145.971 80.7442C145.971 79.504 145.173 78.7048 143.696 78.7048H140.805C140.732 78.7048 140.695 78.7416 140.695 78.8151V82.6732C140.695 82.7467 140.732 82.7835 140.805 82.7835Z" fill="black"/>
<path d="M149.786 82.1093C149.602 81.5489 149.492 80.9059 149.492 79.9046C149.492 78.9033 149.584 78.2327 149.767 77.6999C150.263 76.1934 151.529 75.3574 153.18 75.3574C154.832 75.3574 156.107 76.2117 156.594 77.6999C156.777 78.2602 156.869 78.8665 156.869 80.1894C156.869 80.2996 156.795 80.3731 156.667 80.3731H151.162C151.088 80.3731 151.052 80.4098 151.052 80.4833C151.052 80.9518 151.107 81.2457 151.199 81.5397C151.547 82.541 152.327 83.0462 153.401 83.0462C154.474 83.0462 155.162 82.6237 155.639 82.0817C155.731 81.9898 155.823 81.9715 155.915 82.045L156.658 82.7156C156.75 82.789 156.75 82.8809 156.676 82.9728C155.988 83.8455 154.804 84.4609 153.281 84.4609C151.52 84.4609 150.263 83.6066 149.795 82.1001L149.786 82.1093ZM155.208 79.1605C155.281 79.1605 155.318 79.1237 155.318 79.0503C155.318 78.6461 155.282 78.3429 155.19 78.0673C154.896 77.1946 154.171 76.6986 153.19 76.6986C152.208 76.6986 151.483 77.1946 151.189 78.0673C151.098 78.3429 151.061 78.6461 151.061 79.0503C151.061 79.1237 151.098 79.1605 151.171 79.1605H155.208Z" fill="black"/>
<path d="M161.852 84.3609C160.164 84.3609 159.512 83.5985 159.512 81.8898V76.9017C159.512 76.8283 159.475 76.7915 159.402 76.7915H158.677C158.567 76.7915 158.494 76.718 158.494 76.6078V75.7351C158.494 75.6248 158.567 75.5514 158.677 75.5514H159.402C159.475 75.5514 159.512 75.5146 159.512 75.4411V72.9884C159.512 72.8782 159.585 72.8047 159.696 72.8047H160.861C160.971 72.8047 161.044 72.8782 161.044 72.9884V75.4411C161.044 75.5146 161.081 75.5514 161.154 75.5514H162.54C162.65 75.5514 162.723 75.6248 162.723 75.7351V76.6078C162.723 76.718 162.65 76.7915 162.54 76.7915H161.154C161.081 76.7915 161.044 76.8283 161.044 76.9017V81.8347C161.044 82.7074 161.375 82.9462 162.155 82.9462H162.54C162.65 82.9462 162.723 83.0197 162.723 83.13V84.1864C162.723 84.2966 162.65 84.3701 162.54 84.3701H161.87L161.852 84.3609Z" fill="black"/>
<path d="M167.572 84.3609C165.884 84.3609 165.233 83.5985 165.233 81.8898V76.9017C165.233 76.8283 165.196 76.7915 165.123 76.7915H164.398C164.288 76.7915 164.214 76.718 164.214 76.6078V75.7351C164.214 75.6248 164.288 75.5514 164.398 75.5514H165.123C165.196 75.5514 165.233 75.5146 165.233 75.4411V72.9884C165.233 72.8782 165.306 72.8047 165.416 72.8047H166.582C166.692 72.8047 166.765 72.8782 166.765 72.9884V75.4411C166.765 75.5146 166.802 75.5514 166.875 75.5514H168.261C168.371 75.5514 168.444 75.6248 168.444 75.7351V76.6078C168.444 76.718 168.371 76.7915 168.261 76.7915H166.875C166.802 76.7915 166.765 76.8283 166.765 76.9017V81.8347C166.765 82.7074 167.095 82.9462 167.875 82.9462H168.261C168.371 82.9462 168.444 83.0197 168.444 83.13V84.1864C168.444 84.2966 168.371 84.3701 168.261 84.3701H167.591L167.572 84.3609Z" fill="black"/>
<path d="M170.556 82.1093C170.373 81.5489 170.263 80.9059 170.263 79.9046C170.263 78.9033 170.354 78.2327 170.538 77.6999C171.033 76.1934 172.3 75.3574 173.951 75.3574C175.603 75.3574 176.878 76.2117 177.364 77.6999C177.548 78.2602 177.64 78.8665 177.64 80.1894C177.64 80.2996 177.566 80.3731 177.438 80.3731H171.933C171.859 80.3731 171.822 80.4098 171.822 80.4833C171.822 80.9518 171.878 81.2457 171.969 81.5397C172.318 82.541 173.098 83.0462 174.171 83.0462C175.245 83.0462 175.933 82.6237 176.41 82.0817C176.502 81.9898 176.594 81.9715 176.685 82.045L177.429 82.7156C177.52 82.789 177.52 82.8809 177.447 82.9728C176.759 83.8455 175.575 84.4609 174.052 84.4609C172.29 84.4609 171.033 83.6066 170.565 82.1001L170.556 82.1093ZM175.979 79.1605C176.052 79.1605 176.089 79.1237 176.089 79.0503C176.089 78.6461 176.052 78.3429 175.96 78.0673C175.667 77.1946 174.942 76.6986 173.96 76.6986C172.979 76.6986 172.254 77.1946 171.96 78.0673C171.868 78.3429 171.832 78.6461 171.832 79.0503C171.832 79.1237 171.868 79.1605 171.942 79.1605H175.979Z" fill="black"/>
<path d="M180.278 84.2772C180.168 84.2772 180.094 84.2037 180.094 84.0935V75.7432C180.094 75.633 180.168 75.5595 180.278 75.5595H181.443C181.553 75.5595 181.627 75.633 181.627 75.7432V76.6343H181.645C182.03 75.8902 182.792 75.3574 183.957 75.3574C184.645 75.3574 185.297 75.6146 185.737 76.0096C185.829 76.1015 185.847 76.175 185.774 76.2668L185.104 77.1579C185.031 77.2498 184.939 77.2681 184.847 77.1947C184.444 76.9374 184.012 76.7721 183.508 76.7721C182.177 76.7721 181.636 77.8101 181.636 79.3167V84.0843C181.636 84.1945 181.563 84.268 181.452 84.268H180.287L180.278 84.2772Z" fill="black"/>
<g clip-path="url(#clip0_308_12539)">
<path d="M66.9462 42.9362H87.3207C90.9841 42.9362 93.8994 39.8462 93.6717 36.1911C93.6717 36.1342 93.6636 36.0772 93.6595 36.0203C93.4725 33.1336 93.3179 31.6984 92.4316 28.8686C89.9554 21.347 83.4051 16.834 73.9355 16.834C64.4659 16.834 58.0051 21.2575 55.529 28.9581C54.6426 31.613 54.114 34.7111 54.114 39.2241C54.114 43.7371 54.732 46.7458 55.6184 49.4007C58.0946 57.0972 64.8197 61.6102 74.5536 61.6102C86.1578 61.4598 90.5084 57.0647 90.5084 52.1858C90.5084 50.9661 90.236 49.9049 90.0774 49.3926C90.0286 49.23 89.8212 49.1609 89.6627 49.2503C87.2353 50.6367 83.0839 51.5475 76.6069 51.5475C75.9279 51.5475 75.1838 51.5231 74.5576 51.4783V51.4702C70.7641 51.1368 67.983 49.2218 66.9421 45.8595C66.6778 45.152 66.4989 44.3551 66.4095 43.4688C66.4095 43.1151 66.5884 42.9362 66.9421 42.9362H66.9462ZM66.8608 30.991C67.8325 28.0717 70.4876 26.3031 74.0291 26.3031C77.5705 26.3031 80.2215 28.0717 81.1973 30.991C81.4616 31.8732 81.6405 32.845 81.6405 34.1704C81.6405 34.4672 81.4047 34.7071 81.1079 34.7071H66.9502C66.6534 34.7071 66.4176 34.4631 66.4176 34.1704C66.4176 32.845 66.5965 31.8732 66.8608 30.991Z" fill="black"/>
<path d="M150.031 49.6123C149.059 46.5264 148.62 43.5258 148.62 39.2934C148.62 35.0609 149.059 32.0604 150.031 28.9745C152.499 21.2129 159.557 16.9805 168.555 16.9805C177.553 16.9805 184.608 21.2129 187.08 28.9745C188.052 32.0604 188.491 35.0609 188.491 39.2934C188.491 43.5258 188.052 46.5264 187.08 49.6123C184.612 57.3738 177.553 61.6063 168.555 61.6063C159.557 61.6063 152.503 57.3738 150.031 49.6123ZM175.167 46.6117C175.785 44.6724 175.959 42.9078 175.959 39.2893C175.959 35.6708 175.785 33.9103 175.167 31.9709C174.195 28.9704 171.816 27.3848 168.551 27.3848C165.286 27.3848 162.908 28.9704 161.936 31.9709C161.318 33.9103 161.143 35.6748 161.143 39.2893C161.143 42.9038 161.318 44.6683 161.936 46.6117C162.908 49.6123 165.286 51.1979 168.551 51.1979C171.816 51.1979 174.195 49.6123 175.167 46.6117Z" fill="black"/>
<path d="M47.0646 43.1718C47.0646 36.0282 43.0068 31.0883 39.0385 29.5881V29.4132C43.0068 27.2096 46.0075 23.152 46.0075 16.6223C46.0034 7.10032 39.9208 0.660156 26.865 0.660156H0.737166C0.558264 0.660156 0.424087 0.822787 0.452549 0.997615C0.977057 4.04694 1.55036 7.05153 1.94069 10.7432C2.18465 13.0323 2.6075 18.0128 2.6075 22.3917V38.8987C2.6075 43.2775 2.18465 48.258 1.94069 50.5471C1.55036 54.2428 0.972991 57.2474 0.452549 60.2927C0.424087 60.4675 0.558264 60.6301 0.737166 60.6301H3.18487C3.24586 60.6301 3.30685 60.622 3.36784 60.618C3.4085 60.622 3.44916 60.6301 3.48982 60.6301H26.247C26.4055 60.6301 26.5641 60.6261 26.7227 60.622C26.7715 60.622 26.8243 60.6261 26.865 60.6301L26.8569 60.622C39.4572 60.4472 47.0646 54.7998 47.0646 43.1677V43.1718ZM15.5738 11.6865C15.5738 11.3938 15.8097 11.158 16.1024 11.158H25.2752C30.2153 11.158 33.1266 13.7153 33.1266 18.1267C33.1266 22.538 30.2153 25.1808 25.2752 25.1808H16.1024C15.8097 25.1808 15.5738 24.945 15.5738 24.6522V11.6865ZM25.9827 50.1405H16.1024C15.8097 50.1405 15.5738 49.9047 15.5738 49.6119V35.6745C15.5738 35.3818 15.8097 35.146 16.1024 35.146H25.9827C31.2765 35.146 34.0983 38.057 34.0983 42.6432C34.0983 47.2294 31.2765 50.1405 25.9827 50.1405Z" fill="black"/>
<path d="M140.819 26.9616C138.616 20.1717 133.496 16.728 126.353 16.728C120.709 16.728 117.09 18.7569 115.151 21.6679H115.061V6.42134C115.061 3.24192 112.484 0.660156 109.3 0.660156H100.871C100.692 0.660156 100.558 0.822787 100.587 0.997615C101.111 4.04694 101.684 7.05153 102.075 10.7432C102.254 12.4549 102.66 19.57 102.713 22.3591V38.8946C102.66 41.6837 102.254 48.8028 102.075 50.5105C101.684 54.2184 101.103 57.2474 100.579 60.2927C100.55 60.4675 100.684 60.6301 100.863 60.6301H104.697C105.197 60.6139 105.779 60.6098 106.385 60.6139C106.482 60.622 106.58 60.6301 106.682 60.6301H111.329C113.39 60.6301 115.061 58.9591 115.061 56.8978V56.414H115.151C117.09 59.325 120.709 61.3539 126.353 61.3539C133.496 61.3539 138.611 57.8248 140.819 51.1244C141.876 47.7742 142.32 44.5094 142.32 39.041C142.32 33.5725 141.88 30.3077 140.819 26.9575V26.9616ZM129 46.3634C128.028 49.3639 125.735 50.9496 122.384 50.9496C119.034 50.9496 116.826 49.3639 115.858 46.3634C115.33 44.6883 115.066 42.8343 115.066 39.041C115.066 35.2476 115.33 33.3977 115.858 31.7226C116.83 28.6367 119.123 27.1364 122.384 27.1364C125.645 27.1364 128.028 28.6367 129 31.7226C129.528 33.3977 129.792 35.2517 129.792 39.041C129.792 42.8302 129.528 44.6842 129 46.3634Z" fill="black"/>
</g>
<defs>
<clipPath id="clip0_308_12539">
<rect width="188.038" height="60.9472" fill="white" transform="translate(0.448242 0.660156)"/>
</clipPath>
</defs>
</svg>
