<svg width="72" height="72" viewBox="0 0 72 72" fill="none" xmlns="http://www.w3.org/2000/svg">
<path d="M15.225 60V55.5H56.775V60H15.225ZM15.15 49.2L11.175 24.15C10.925 24.25 10.6875 24.3125 10.4625 24.3375C10.2375 24.3625 10 24.375 9.75 24.375C8.7 24.375 7.8125 24.0125 7.0875 23.2875C6.3625 22.5625 6 21.675 6 20.625C6 19.575 6.3625 18.675 7.0875 17.925C7.8125 17.175 8.7 16.8 9.75 16.8C10.8 16.8 11.7 17.175 12.45 17.925C13.2 18.675 13.575 19.575 13.575 20.625C13.575 21.025 13.5125 21.425 13.3875 21.825C13.2625 22.225 13.075 22.575 12.825 22.875L23.925 27.825L34.5 13.275C33.8 12.975 33.2375 12.5125 32.8125 11.8875C32.3875 11.2625 32.175 10.55 32.175 9.75C32.175 8.7 32.55 7.8125 33.3 7.0875C34.05 6.3625 34.95 6 36 6C37.05 6 37.95 6.3625 38.7 7.0875C39.45 7.8125 39.825 8.7 39.825 9.75C39.825 10.55 39.6125 11.2625 39.1875 11.8875C38.7625 12.5125 38.2 12.975 37.5 13.275L48.075 27.825L59.175 22.875C58.925 22.575 58.7375 22.225 58.6125 21.825C58.4875 21.425 58.425 21.025 58.425 20.625C58.425 19.575 58.8 18.675 59.55 17.925C60.3 17.175 61.175 16.8 62.175 16.8C63.225 16.8 64.125 17.175 64.875 17.925C65.625 18.675 66 19.575 66 20.625C66 21.675 65.625 22.5625 64.875 23.2875C64.125 24.0125 63.225 24.375 62.175 24.375C61.925 24.375 61.7 24.35 61.5 24.3C61.3 24.25 61.075 24.175 60.825 24.075L56.85 49.2H15.15ZM18.975 44.7H53.025L55.425 29.475L46.575 33.45L36 18.825L25.425 33.45L16.575 29.475L18.975 44.7Z" fill="#88C8F0"/>
</svg>
