<svg width="72" height="72" viewBox="0 0 72 72" fill="none" xmlns="http://www.w3.org/2000/svg">
<path d="M43.8 34.35C42.85 34.35 42.05 34.025 41.4 33.375C40.75 32.725 40.425 31.925 40.425 30.975C40.425 30.025 40.75 29.225 41.4 28.575C42.05 27.925 42.85 27.6 43.8 27.6C44.75 27.6 45.55 27.925 46.2 28.575C46.85 29.225 47.175 30.025 47.175 30.975C47.175 31.925 46.85 32.725 46.2 33.375C45.55 34.025 44.75 34.35 43.8 34.35ZM28.125 34.35C27.175 34.35 26.375 34.025 25.725 33.375C25.075 32.725 24.75 31.925 24.75 30.975C24.75 30.025 25.075 29.225 25.725 28.575C26.375 27.925 27.175 27.6 28.125 27.6C29.075 27.6 29.875 27.925 30.525 28.575C31.175 29.225 31.5 30.025 31.5 30.975C31.5 31.925 31.175 32.725 30.525 33.375C29.875 34.025 29.075 34.35 28.125 34.35ZM36 50.55C33.2 50.55 30.65 49.8 28.35 48.3C26.05 46.8 24.25 44.825 22.95 42.375H49.05C47.75 44.825 45.95 46.8 43.65 48.3C41.35 49.8 38.8 50.55 36 50.55ZM36 63C32.3 63 28.8125 62.2875 25.5375 60.8625C22.2625 59.4375 19.4 57.5 16.95 55.05C14.5 52.6 12.5625 49.7375 11.1375 46.4625C9.7125 43.1875 9 39.7 9 36C9 32.3 9.7125 28.8125 11.1375 25.5375C12.5625 22.2625 14.5 19.4 16.95 16.95C19.4 14.5 22.2625 12.5625 25.5375 11.1375C28.8125 9.7125 32.3 9 36 9C39.7 9 43.1875 9.7125 46.4625 11.1375C49.7375 12.5625 52.6 14.5 55.05 16.95C57.5 19.4 59.4375 22.2625 60.8625 25.5375C62.2875 28.8125 63 32.3 63 36C63 39.7 62.2875 43.1875 60.8625 46.4625C59.4375 49.7375 57.5 52.6 55.05 55.05C52.6 57.5 49.7375 59.4375 46.4625 60.8625C43.1875 62.2875 39.7 63 36 63ZM36 58.5C42.15 58.5 47.4375 56.3125 51.8625 51.9375C56.2875 47.5625 58.5 42.3 58.5 36.15C58.5 30 56.325 24.625 51.975 20.025C47.625 15.425 42.25 13.125 35.85 13.125H34.5C34.15 13.125 33.7 13.15 33.15 13.2C33.05 13.6 32.9625 14.075 32.8875 14.625C32.8125 15.175 32.775 15.65 32.775 16.05C32.775 17.3 33.1875 18.3375 34.0125 19.1625C34.8375 19.9875 35.875 20.4 37.125 20.4C37.725 20.4 38.225 20.3625 38.625 20.2875C39.025 20.2125 39.4 20.175 39.75 20.175C40.25 20.175 40.675 20.3 41.025 20.55C41.375 20.8 41.55 21.175 41.55 21.675C41.55 22.475 41.175 23.0875 40.425 23.5125C39.675 23.9375 38.575 24.15 37.125 24.15C34.825 24.15 32.9 23.375 31.35 21.825C29.8 20.275 29.025 18.35 29.025 16.05C29.025 15.8 29.0375 15.475 29.0625 15.075C29.0875 14.675 29.15 14.35 29.25 14.1C24.7 15.75 20.9375 18.5 17.9625 22.35C14.9875 26.2 13.5 30.7 13.5 35.85C13.5 42 15.7125 47.3125 20.1375 51.7875C24.5625 56.2625 29.85 58.5 36 58.5Z" fill="#88C8F0"/>
</svg>
