<svg width="72" height="72" viewBox="0 0 72 72" fill="none" xmlns="http://www.w3.org/2000/svg">
<path d="M36 62.9242L32.925 60.1492C27.6365 55.2932 23.2645 51.1042 19.809 47.5822C16.353 44.0602 13.6 40.9117 11.55 38.1367C9.5 35.3617 8.0625 32.8492 7.2375 30.5992C6.4125 28.3492 6 26.0742 6 23.7742C6 19.2667 7.5125 15.5022 10.5375 12.4807C13.5625 9.45972 17.3 7.94922 21.75 7.94922C24.6 7.94922 27.2375 8.62422 29.6625 9.97422C32.0875 11.3242 34.2 13.2742 36 15.8242C38.1 13.1242 40.325 11.1367 42.675 9.86172C45.025 8.58672 47.55 7.94922 50.25 7.94922C54.7 7.94922 58.4375 9.45972 61.4625 12.4807C64.4875 15.5022 66 19.2667 66 23.7742C66 26.0742 65.5875 28.3492 64.7625 30.5992C63.9375 32.8492 62.5 35.3617 60.45 38.1367C58.4 40.9117 55.647 44.0602 52.191 47.5822C48.7355 51.1042 44.3635 55.2932 39.075 60.1492L36 62.9242ZM36 56.9992C41.062 52.3492 45.2275 48.3617 48.4965 45.0367C51.7655 41.7117 54.3625 38.7992 56.2875 36.2992C58.2125 33.7992 59.5625 31.5707 60.3375 29.6137C61.1125 27.6572 61.5 25.7142 61.5 23.7847C61.5 20.4777 60.45 17.7617 58.35 15.6367C56.25 13.5117 53.5555 12.4492 50.2665 12.4492C47.6905 12.4492 45.3062 13.2367 43.1137 14.8117C40.9212 16.3867 39.15 18.5992 37.8 21.4492H34.125C32.825 18.6492 31.0787 16.4492 28.8862 14.8492C26.6937 13.2492 24.3095 12.4492 21.7335 12.4492C18.4445 12.4492 15.75 13.5117 13.65 15.6367C11.55 17.7617 10.5 20.4822 10.5 23.7982C10.5 25.7322 10.8875 27.6867 11.6625 29.6617C12.4375 31.6367 13.7875 33.8867 15.7125 36.4117C17.6375 38.9367 20.25 41.8492 23.55 45.1492C26.85 48.4492 31 52.3992 36 56.9992Z" fill="#88C8F0"/>
</svg>
